<svg id="svg" version="1.1" xmlns="http://www.w3.org/2000/svg" xmlns:xlink="http://www.w3.org/1999/xlink" width="158" height="25.678516228748066" viewBox="0, 0, 400,63.678516228748066">
<g id="svgg">
<path id="path0" d="M38.458 0.339 L 38.833 0.489 38.833 8.161 C 38.833 13.165,38.891 15.833,39.000 15.833 C 39.092 15.833,39.167 15.755,39.167 15.660 C 39.167 15.564,39.242 15.395,39.333 15.285 C 39.694 14.849,40.667 13.291,40.667 13.150 C 40.667 13.067,40.742 13.000,40.833 13.000 C 40.925 13.000,41.000 12.887,41.000 12.750 C 41.000 12.612,41.075 12.500,41.167 12.500 C 41.258 12.500,41.333 12.387,41.333 12.250 C 41.333 12.112,41.408 12.000,41.500 12.000 C 41.592 12.000,41.667 11.923,41.667 11.828 C 41.667 11.734,42.154 10.906,42.750 9.988 C 43.346 9.069,43.833 8.247,43.833 8.159 C 43.833 8.072,43.908 8.000,44.000 8.000 C 44.092 8.000,44.167 7.919,44.167 7.821 C 44.167 7.722,44.504 7.120,44.917 6.482 C 45.329 5.845,45.667 5.250,45.667 5.161 C 45.667 5.073,45.742 5.000,45.833 5.000 C 45.925 5.000,46.000 4.887,46.000 4.750 C 46.000 4.612,46.075 4.500,46.167 4.500 C 46.258 4.500,46.333 4.419,46.333 4.321 C 46.333 4.222,46.671 3.620,47.083 2.982 C 47.496 2.345,47.833 1.757,47.833 1.675 C 47.833 1.594,47.890 1.503,47.958 1.472 C 48.091 1.413,48.667 0.433,48.667 0.266 C 48.667 0.211,46.285 0.171,43.375 0.177 C 40.044 0.184,38.222 0.244,38.458 0.339 M14.813 8.713 C 14.885 8.785,15.950 8.822,17.180 8.796 L 19.417 8.749 17.049 8.666 C 15.747 8.621,14.741 8.642,14.813 8.713 M13.866 12.958 C 14.846 12.987,16.496 12.987,17.532 12.958 C 18.569 12.929,17.767 12.904,15.750 12.904 C 13.733 12.904,12.885 12.928,13.866 12.958 M136.625 16.621 C 136.923 16.658,137.410 16.658,137.708 16.621 C 138.006 16.584,137.762 16.553,137.167 16.553 C 136.571 16.553,136.327 16.584,136.625 16.621 M316.042 16.749 C 315.927 16.879,315.833 17.087,315.833 17.210 C 315.833 17.522,315.443 18.330,315.292 18.332 C 315.223 18.333,315.167 18.483,315.167 18.667 C 315.167 18.850,315.092 19.000,315.000 19.000 C 314.908 19.000,314.833 19.105,314.833 19.234 C 314.833 19.363,314.690 19.757,314.516 20.109 C 313.953 21.243,313.667 21.961,313.667 22.234 C 313.667 22.380,313.610 22.500,313.541 22.500 C 313.471 22.500,313.313 22.744,313.189 23.042 C 313.066 23.340,312.672 24.196,312.314 24.945 C 311.956 25.694,311.617 26.538,311.561 26.820 C 311.505 27.102,311.393 27.333,311.313 27.333 C 311.232 27.333,311.167 27.483,311.167 27.667 C 311.167 27.850,311.092 28.000,311.000 28.000 C 310.908 28.000,310.833 28.150,310.833 28.333 C 310.833 28.517,310.758 28.667,310.667 28.667 C 310.575 28.667,310.500 28.817,310.500 29.000 C 310.500 29.183,310.425 29.333,310.333 29.333 C 310.242 29.333,310.167 29.479,310.167 29.657 C 310.167 29.835,310.100 30.021,310.019 30.072 C 309.938 30.122,309.822 30.426,309.761 30.748 C 309.701 31.070,309.580 31.333,309.492 31.333 C 309.405 31.333,309.333 31.483,309.333 31.667 C 309.333 31.850,309.258 32.000,309.167 32.000 C 309.075 32.000,309.000 32.146,309.000 32.323 C 309.000 32.501,308.925 32.693,308.833 32.750 C 308.742 32.807,308.667 32.999,308.667 33.177 C 308.667 33.354,308.592 33.500,308.500 33.500 C 308.408 33.500,308.333 33.650,308.333 33.833 C 308.333 34.017,308.258 34.167,308.167 34.167 C 308.075 34.167,308.000 34.271,308.000 34.398 C 308.000 34.525,307.888 34.843,307.751 35.106 C 307.614 35.369,307.502 35.710,307.501 35.865 C 307.500 36.020,307.425 36.193,307.333 36.250 C 307.242 36.307,307.167 36.499,307.167 36.677 C 307.167 36.854,307.092 37.000,307.000 37.000 C 306.908 37.000,306.833 37.112,306.833 37.250 C 306.833 37.387,306.758 37.500,306.667 37.500 C 306.575 37.500,306.500 37.601,306.500 37.724 C 306.500 37.848,306.395 38.167,306.266 38.433 C 305.680 39.644,305.333 40.503,305.333 40.741 C 305.333 40.883,305.258 41.000,305.167 41.000 C 305.075 41.000,305.000 41.150,305.000 41.333 C 305.000 41.517,304.925 41.667,304.833 41.667 C 304.742 41.667,304.667 41.812,304.667 41.990 C 304.667 42.168,304.592 42.360,304.500 42.417 C 304.408 42.473,304.333 42.659,304.333 42.829 C 304.333 43.000,304.274 43.164,304.200 43.194 C 304.015 43.272,303.340 44.756,303.223 45.346 C 303.169 45.614,303.059 45.833,302.979 45.833 C 302.899 45.833,302.833 45.983,302.833 46.167 C 302.833 46.350,302.758 46.500,302.667 46.500 C 302.575 46.500,302.500 46.650,302.500 46.833 C 302.500 47.017,302.425 47.167,302.333 47.167 C 302.242 47.167,302.167 47.312,302.167 47.490 C 302.167 47.668,302.092 47.860,302.000 47.917 C 301.908 47.973,301.833 48.240,301.833 48.510 L 301.833 49.000 305.339 49.000 C 308.529 49.000,308.852 48.974,308.940 48.708 C 308.993 48.548,309.140 48.180,309.268 47.891 C 309.396 47.603,309.500 47.246,309.500 47.100 C 309.500 46.953,309.575 46.833,309.667 46.833 C 309.758 46.833,309.833 46.683,309.833 46.500 C 309.833 46.317,309.908 46.167,310.000 46.167 C 310.092 46.167,310.167 46.056,310.167 45.922 C 310.167 45.787,310.317 45.410,310.500 45.083 C 310.683 44.757,310.833 44.380,310.833 44.245 C 310.833 44.110,310.903 44.000,310.988 44.000 C 311.074 44.000,311.167 43.831,311.197 43.625 L 311.250 43.250 319.469 43.207 C 328.289 43.160,328.167 43.149,328.167 43.988 C 328.167 44.178,328.242 44.333,328.333 44.333 C 328.425 44.333,328.500 44.479,328.500 44.657 C 328.500 44.835,328.569 45.023,328.654 45.075 C 328.738 45.128,328.857 45.395,328.917 45.669 C 328.977 45.943,329.096 46.167,329.180 46.167 C 329.264 46.167,329.333 46.302,329.333 46.467 C 329.333 46.839,329.706 47.664,329.875 47.665 C 329.944 47.666,330.000 47.817,330.000 48.000 C 330.000 48.183,330.075 48.333,330.167 48.333 C 330.258 48.333,330.333 48.483,330.333 48.667 C 330.333 48.989,330.444 49.000,333.833 49.000 L 337.333 49.000 337.333 48.573 C 337.333 48.338,337.146 47.735,336.917 47.234 C 336.688 46.733,336.500 46.251,336.500 46.162 C 336.500 46.073,336.425 46.000,336.333 46.000 C 336.242 46.000,336.167 45.850,336.167 45.667 C 336.167 45.483,336.092 45.333,336.000 45.333 C 335.908 45.333,335.833 45.183,335.833 45.000 C 335.833 44.817,335.758 44.667,335.667 44.667 C 335.575 44.667,335.500 44.479,335.500 44.250 C 335.500 44.021,335.425 43.833,335.333 43.833 C 335.242 43.833,335.167 43.708,335.167 43.554 C 335.167 43.401,334.896 42.707,334.565 42.012 C 334.235 41.318,333.804 40.412,333.609 40.000 C 333.414 39.587,333.207 39.212,333.148 39.167 C 333.090 39.121,332.986 38.826,332.918 38.511 C 332.849 38.197,332.652 37.688,332.480 37.381 C 332.308 37.074,332.167 36.713,332.167 36.578 C 332.167 36.444,332.092 36.333,332.000 36.333 C 331.908 36.333,331.833 36.183,331.833 36.000 C 331.833 35.817,331.758 35.667,331.667 35.667 C 331.575 35.667,331.500 35.517,331.500 35.333 C 331.500 35.150,331.425 35.000,331.333 35.000 C 331.242 35.000,331.167 34.813,331.167 34.583 C 331.167 34.354,331.100 34.167,331.019 34.167 C 330.937 34.167,330.821 33.904,330.761 33.583 C 330.701 33.262,330.580 33.000,330.492 33.000 C 330.405 33.000,330.333 32.850,330.333 32.667 C 330.333 32.483,330.258 32.333,330.167 32.333 C 330.075 32.333,330.000 32.188,330.000 32.010 C 330.000 31.832,329.925 31.640,329.833 31.583 C 329.742 31.527,329.667 31.335,329.667 31.157 C 329.667 30.979,329.592 30.833,329.500 30.833 C 329.408 30.833,329.333 30.683,329.333 30.500 C 329.333 30.317,329.258 30.167,329.167 30.167 C 329.075 30.167,329.000 30.017,329.000 29.833 C 329.000 29.650,328.934 29.500,328.854 29.500 C 328.774 29.500,328.663 29.274,328.608 28.997 C 328.490 28.408,327.495 26.276,327.300 26.194 C 327.227 26.164,327.167 25.958,327.167 25.736 C 327.167 25.515,327.100 25.333,327.019 25.333 C 326.938 25.333,326.831 25.165,326.780 24.958 C 326.587 24.179,326.247 23.333,326.126 23.333 C 326.057 23.333,326.000 23.183,326.000 23.000 C 326.000 22.817,325.925 22.667,325.833 22.667 C 325.742 22.667,325.667 22.521,325.667 22.343 C 325.667 22.165,325.592 21.973,325.500 21.917 C 325.408 21.860,325.333 21.668,325.333 21.490 C 325.333 21.312,325.258 21.167,325.167 21.167 C 325.075 21.167,325.000 21.017,325.000 20.833 C 325.000 20.650,324.931 20.500,324.847 20.500 C 324.762 20.500,324.641 20.261,324.577 19.970 C 324.513 19.678,324.319 19.188,324.147 18.881 C 323.974 18.574,323.833 18.213,323.833 18.078 C 323.833 17.944,323.758 17.833,323.667 17.833 C 323.575 17.833,323.500 17.683,323.500 17.500 C 323.500 17.317,323.425 17.167,323.333 17.167 C 323.242 17.167,323.167 17.017,323.167 16.833 C 323.167 16.397,316.422 16.317,316.042 16.749 M378.375 16.747 C 378.260 16.878,378.167 17.102,378.167 17.243 C 378.167 17.384,378.092 17.500,378.000 17.500 C 377.908 17.500,377.833 17.624,377.833 17.775 C 377.833 17.926,377.653 18.433,377.434 18.900 C 377.214 19.368,376.933 19.994,376.810 20.292 C 376.686 20.590,376.529 20.833,376.459 20.833 C 376.390 20.833,376.333 20.932,376.333 21.052 C 376.333 21.172,376.181 21.585,375.996 21.970 C 375.810 22.354,375.613 22.893,375.558 23.168 C 375.503 23.442,375.393 23.667,375.313 23.667 C 375.232 23.667,375.167 23.817,375.167 24.000 C 375.167 24.183,375.092 24.333,375.000 24.333 C 374.908 24.333,374.833 24.483,374.833 24.667 C 374.833 24.850,374.758 25.000,374.667 25.000 C 374.575 25.000,374.500 25.146,374.500 25.323 C 374.500 25.501,374.425 25.693,374.333 25.750 C 374.242 25.807,374.167 25.999,374.167 26.177 C 374.167 26.354,374.109 26.500,374.039 26.500 C 373.907 26.500,373.333 27.715,373.333 27.996 C 373.333 28.084,373.183 28.424,373.000 28.750 C 372.817 29.076,372.667 29.454,372.667 29.588 C 372.667 29.723,372.592 29.833,372.500 29.833 C 372.408 29.833,372.333 29.983,372.333 30.167 C 372.333 30.350,372.258 30.500,372.167 30.500 C 372.075 30.500,372.000 30.610,372.000 30.745 C 372.000 30.880,371.859 31.241,371.687 31.548 C 371.514 31.855,371.321 32.345,371.257 32.636 C 371.193 32.928,371.071 33.167,370.987 33.167 C 370.902 33.167,370.833 33.317,370.833 33.500 C 370.833 33.683,370.775 33.833,370.703 33.833 C 370.631 33.833,370.473 34.171,370.351 34.583 C 370.230 34.996,370.063 35.333,369.982 35.333 C 369.900 35.333,369.833 35.483,369.833 35.667 C 369.833 35.850,369.777 36.000,369.707 36.000 C 369.586 36.000,369.246 36.846,369.054 37.625 C 369.003 37.831,368.895 38.000,368.814 38.000 C 368.733 38.000,368.667 38.181,368.667 38.403 C 368.667 38.624,368.610 38.831,368.542 38.861 C 368.325 38.957,366.833 42.211,366.833 42.588 C 366.833 42.723,366.758 42.833,366.667 42.833 C 366.575 42.833,366.500 42.983,366.500 43.167 C 366.500 43.350,366.425 43.500,366.333 43.500 C 366.242 43.500,366.167 43.688,366.167 43.917 C 366.167 44.146,366.092 44.333,366.000 44.333 C 365.908 44.333,365.833 44.483,365.833 44.667 C 365.833 44.850,365.758 45.000,365.667 45.000 C 365.575 45.000,365.500 45.150,365.500 45.333 C 365.500 45.517,365.431 45.667,365.347 45.667 C 365.262 45.667,365.140 45.908,365.075 46.203 C 365.011 46.498,364.897 46.854,364.823 46.995 C 364.749 47.135,364.590 47.494,364.470 47.792 C 364.350 48.090,364.195 48.333,364.126 48.333 C 364.057 48.333,364.000 48.483,364.000 48.667 C 364.000 48.990,364.111 49.000,367.587 49.000 L 371.175 49.000 371.275 48.500 C 371.330 48.225,371.441 48.000,371.521 48.000 C 371.601 48.000,371.667 47.854,371.667 47.677 C 371.667 47.499,371.742 47.307,371.833 47.250 C 371.925 47.193,372.000 47.001,372.000 46.823 C 372.000 46.646,372.075 46.500,372.167 46.500 C 372.258 46.500,372.333 46.356,372.333 46.181 C 372.333 46.005,372.393 45.836,372.466 45.806 C 372.653 45.728,373.269 44.358,373.409 43.708 L 373.526 43.167 381.922 43.167 L 390.318 43.167 390.428 43.750 C 390.488 44.071,390.604 44.333,390.685 44.333 C 390.767 44.333,390.833 44.479,390.833 44.657 C 390.833 44.835,390.908 45.027,391.000 45.083 C 391.092 45.140,391.167 45.332,391.167 45.510 C 391.167 45.688,391.242 45.833,391.333 45.833 C 391.425 45.833,391.500 45.983,391.500 46.167 C 391.500 46.350,391.575 46.500,391.667 46.500 C 391.758 46.500,391.833 46.646,391.833 46.823 C 391.833 47.001,391.908 47.193,392.000 47.250 C 392.092 47.307,392.167 47.499,392.167 47.677 C 392.167 47.854,392.232 48.000,392.313 48.000 C 392.393 48.000,392.503 48.225,392.558 48.500 L 392.658 49.000 396.246 49.000 C 399.686 49.000,399.833 48.987,399.833 48.677 C 399.833 48.499,399.758 48.307,399.667 48.250 C 399.575 48.193,399.500 48.001,399.500 47.823 C 399.500 47.646,399.425 47.500,399.333 47.500 C 399.242 47.500,399.167 47.374,399.167 47.221 C 399.167 47.067,398.912 46.411,398.600 45.762 C 398.289 45.114,397.933 44.340,397.810 44.042 C 397.686 43.744,397.529 43.500,397.459 43.500 C 397.390 43.500,397.333 43.350,397.333 43.167 C 397.333 42.983,397.268 42.833,397.188 42.833 C 397.107 42.833,396.997 42.609,396.942 42.334 C 396.887 42.060,396.690 41.521,396.504 41.136 C 396.319 40.752,396.167 40.339,396.167 40.219 C 396.167 40.098,396.092 40.000,396.000 40.000 C 395.908 40.000,395.833 39.850,395.833 39.667 C 395.833 39.483,395.758 39.333,395.667 39.333 C 395.575 39.333,395.500 39.188,395.500 39.010 C 395.500 38.832,395.425 38.640,395.333 38.583 C 395.242 38.527,395.167 38.335,395.167 38.157 C 395.167 37.979,395.098 37.833,395.013 37.833 C 394.929 37.833,394.811 37.609,394.750 37.335 C 394.690 37.061,394.572 36.794,394.487 36.742 C 394.403 36.690,394.333 36.501,394.333 36.323 C 394.333 36.146,394.258 36.000,394.167 36.000 C 394.075 36.000,394.000 35.854,394.000 35.677 C 394.000 35.499,393.925 35.307,393.833 35.250 C 393.742 35.193,393.667 35.001,393.667 34.823 C 393.667 34.646,393.592 34.500,393.500 34.500 C 393.408 34.500,393.333 34.350,393.333 34.167 C 393.333 33.983,393.258 33.833,393.167 33.833 C 393.075 33.833,393.000 33.688,393.000 33.510 C 393.000 33.332,392.933 33.145,392.852 33.095 C 392.770 33.044,392.654 32.807,392.594 32.567 C 392.445 31.971,391.796 30.596,391.633 30.528 C 391.560 30.497,391.500 30.333,391.500 30.163 C 391.500 29.992,391.425 29.807,391.333 29.750 C 391.242 29.693,391.167 29.501,391.167 29.323 C 391.167 29.146,391.092 29.000,391.000 29.000 C 390.908 29.000,390.833 28.850,390.833 28.667 C 390.833 28.483,390.758 28.333,390.667 28.333 C 390.575 28.333,390.500 28.217,390.500 28.074 C 390.500 27.836,390.153 26.977,389.567 25.766 C 389.439 25.500,389.333 25.181,389.333 25.058 C 389.333 24.934,389.258 24.833,389.167 24.833 C 389.075 24.833,389.000 24.721,389.000 24.583 C 389.000 24.446,388.925 24.333,388.833 24.333 C 388.742 24.333,388.667 24.195,388.667 24.026 C 388.667 23.745,388.390 23.037,387.989 22.294 C 387.904 22.135,387.833 21.891,387.833 21.752 C 387.833 21.614,387.758 21.500,387.667 21.500 C 387.575 21.500,387.500 21.350,387.500 21.167 C 387.500 20.983,387.425 20.833,387.333 20.833 C 387.242 20.833,387.167 20.688,387.167 20.510 C 387.167 20.332,387.092 20.140,387.000 20.083 C 386.908 20.027,386.833 19.835,386.833 19.657 C 386.833 19.479,386.758 19.333,386.667 19.333 C 386.575 19.333,386.500 19.183,386.500 19.000 C 386.500 18.817,386.431 18.667,386.347 18.667 C 386.262 18.667,386.141 18.429,386.077 18.138 C 386.013 17.847,385.832 17.378,385.675 17.096 L 385.388 16.583 381.986 16.546 C 379.206 16.515,378.545 16.552,378.375 16.747 M337.792 16.782 C 337.529 16.850,337.500 17.128,337.500 19.596 L 337.500 22.333 342.583 22.333 L 347.667 22.333 347.667 35.667 L 347.667 49.000 350.917 49.000 L 354.167 49.000 354.167 35.667 L 354.167 22.333 359.250 22.333 L 364.333 22.333 364.333 19.601 C 364.333 17.264,364.295 16.854,364.070 16.768 C 363.768 16.652,338.236 16.665,337.792 16.782 M272.167 32.911 C 272.167 48.907,272.168 48.989,272.506 49.170 C 273.151 49.515,288.532 49.188,288.908 48.821 C 288.995 48.736,289.352 48.667,289.700 48.667 C 290.048 48.667,290.333 48.592,290.333 48.500 C 290.333 48.408,290.558 48.333,290.833 48.333 C 291.108 48.333,291.333 48.258,291.333 48.167 C 291.333 48.075,291.475 48.000,291.648 48.000 C 291.820 48.000,292.177 47.888,292.439 47.751 C 292.702 47.614,293.048 47.502,293.208 47.501 C 293.369 47.500,293.500 47.425,293.500 47.333 C 293.500 47.242,293.650 47.167,293.833 47.167 C 294.017 47.167,294.167 47.092,294.167 47.000 C 294.167 46.908,294.263 46.833,294.380 46.833 C 294.497 46.833,294.701 46.683,294.833 46.500 C 294.965 46.317,295.174 46.167,295.297 46.167 C 295.792 46.167,299.000 42.639,299.000 42.094 C 299.000 41.951,299.075 41.833,299.167 41.833 C 299.258 41.833,299.333 41.721,299.333 41.583 C 299.333 41.446,299.390 41.333,299.458 41.332 C 299.608 41.330,300.000 40.523,300.000 40.217 C 300.000 40.098,300.075 40.000,300.167 40.000 C 300.258 40.000,300.333 39.862,300.333 39.694 C 300.333 39.526,300.385 39.337,300.448 39.275 C 300.694 39.028,301.003 37.862,301.107 36.786 C 301.167 36.165,301.280 35.617,301.358 35.568 C 301.544 35.453,301.543 30.046,301.357 29.931 C 301.278 29.883,301.174 29.407,301.126 28.874 C 301.038 27.900,300.359 25.631,300.125 25.528 C 300.056 25.497,300.000 25.328,300.000 25.153 C 300.000 24.977,299.925 24.833,299.833 24.833 C 299.742 24.833,299.667 24.721,299.667 24.583 C 299.667 24.446,299.592 24.333,299.500 24.333 C 299.408 24.333,299.333 24.183,299.333 24.000 C 299.333 23.817,299.263 23.667,299.178 23.667 C 299.092 23.667,298.971 23.506,298.909 23.309 C 298.677 22.578,295.781 19.667,295.286 19.667 C 295.169 19.667,294.965 19.517,294.833 19.333 C 294.701 19.150,294.497 19.000,294.380 19.000 C 294.263 19.000,294.167 18.925,294.167 18.833 C 294.167 18.742,294.017 18.667,293.833 18.667 C 293.650 18.667,293.500 18.610,293.500 18.542 C 293.500 18.473,293.031 18.278,292.458 18.108 C 291.885 17.939,291.286 17.732,291.127 17.650 C 290.968 17.567,290.654 17.500,290.429 17.500 C 290.204 17.500,289.973 17.425,289.917 17.333 C 289.860 17.242,289.443 17.167,288.990 17.167 C 288.537 17.167,288.167 17.092,288.167 17.000 C 288.167 16.891,285.389 16.833,280.167 16.833 L 272.167 16.833 272.167 32.911 M77.792 21.458 C 71.444 21.503,71.000 21.544,71.593 22.035 C 71.736 22.153,72.254 22.652,72.742 23.143 C 73.231 23.633,73.707 24.110,73.798 24.202 C 73.890 24.293,74.388 24.792,74.906 25.309 C 75.423 25.827,75.911 26.314,75.989 26.393 C 76.067 26.471,76.544 26.948,77.048 27.452 C 77.552 27.956,78.029 28.436,78.107 28.518 C 78.186 28.600,78.494 28.885,78.792 29.151 C 79.090 29.416,79.333 29.719,79.333 29.824 C 79.333 29.929,80.453 31.128,81.822 32.489 C 84.048 34.702,84.318 35.031,84.378 35.607 C 84.414 35.961,84.457 32.894,84.472 28.792 C 84.487 24.690,84.444 21.351,84.375 21.373 C 84.306 21.395,81.344 21.433,77.792 21.458 M287.667 22.833 C 287.667 22.925,287.887 23.000,288.157 23.000 C 288.426 23.000,288.693 23.075,288.750 23.167 C 288.807 23.258,288.999 23.333,289.177 23.333 C 289.354 23.333,289.500 23.408,289.500 23.500 C 289.500 23.592,289.650 23.667,289.833 23.667 C 290.017 23.667,290.168 23.723,290.169 23.792 C 290.170 23.860,290.479 24.064,290.855 24.245 C 291.612 24.608,292.516 25.443,292.954 26.184 C 293.110 26.450,293.297 26.667,293.369 26.667 C 293.441 26.667,293.500 26.817,293.500 27.000 C 293.500 27.183,293.575 27.333,293.667 27.333 C 293.758 27.333,293.833 27.483,293.833 27.667 C 293.833 27.850,293.890 28.000,293.959 28.000 C 294.410 28.000,294.907 30.493,294.907 32.750 C 294.907 35.007,294.410 37.500,293.959 37.500 C 293.890 37.500,293.833 37.650,293.833 37.833 C 293.833 38.017,293.758 38.167,293.667 38.167 C 293.575 38.167,293.500 38.280,293.500 38.418 C 293.500 39.104,290.233 41.833,289.411 41.833 C 289.277 41.833,289.167 41.908,289.167 42.000 C 289.167 42.092,288.984 42.167,288.760 42.167 C 288.536 42.167,288.307 42.242,288.250 42.333 C 288.193 42.425,287.776 42.500,287.323 42.500 C 286.871 42.500,286.500 42.575,286.500 42.667 C 286.500 42.773,285.083 42.833,282.583 42.833 L 278.667 42.833 278.667 32.750 L 278.667 22.667 283.167 22.667 C 286.056 22.667,287.667 22.726,287.667 22.833 M382.363 25.500 C 382.438 25.500,382.500 25.646,382.500 25.823 C 382.500 26.001,382.575 26.193,382.667 26.250 C 382.758 26.307,382.833 26.499,382.833 26.677 C 382.833 26.854,382.908 27.000,383.000 27.000 C 383.092 27.000,383.167 27.150,383.167 27.333 C 383.167 27.517,383.242 27.667,383.333 27.667 C 383.425 27.667,383.500 27.780,383.500 27.919 C 383.500 28.058,383.566 28.301,383.647 28.461 C 383.796 28.753,383.919 29.038,384.419 30.250 C 384.571 30.617,384.763 31.047,384.847 31.206 C 384.931 31.365,385.000 31.609,385.000 31.748 C 385.000 31.886,385.075 32.000,385.167 32.000 C 385.258 32.000,385.333 32.150,385.333 32.333 C 385.333 32.517,385.408 32.667,385.500 32.667 C 385.592 32.667,385.667 32.854,385.667 33.083 C 385.667 33.313,385.723 33.500,385.793 33.500 C 385.862 33.500,386.001 33.744,386.103 34.042 C 386.445 35.046,386.916 36.249,387.000 36.333 C 387.046 36.379,387.178 36.585,387.293 36.792 L 387.503 37.167 382.085 37.167 L 376.667 37.167 376.667 36.750 C 376.667 36.521,376.742 36.333,376.833 36.333 C 376.925 36.333,377.000 36.183,377.000 36.000 C 377.000 35.817,377.059 35.667,377.131 35.667 C 377.204 35.667,377.410 35.179,377.590 34.583 C 377.770 33.988,377.973 33.500,378.042 33.500 C 378.110 33.500,378.167 33.350,378.167 33.167 C 378.167 32.983,378.242 32.833,378.333 32.833 C 378.425 32.833,378.500 32.688,378.500 32.510 C 378.500 32.332,378.575 32.140,378.667 32.083 C 378.758 32.027,378.833 31.835,378.833 31.657 C 378.833 31.479,378.908 31.333,379.000 31.333 C 379.092 31.333,379.167 31.220,379.167 31.081 C 379.167 30.942,379.235 30.699,379.319 30.539 C 379.670 29.874,380.000 29.015,380.000 28.766 C 380.000 28.620,380.075 28.500,380.167 28.500 C 380.258 28.500,380.333 28.354,380.333 28.177 C 380.333 27.999,380.408 27.807,380.500 27.750 C 380.592 27.693,380.667 27.501,380.667 27.323 C 380.667 27.146,380.742 27.000,380.833 27.000 C 380.925 27.000,381.000 26.850,381.000 26.667 C 381.000 26.483,381.075 26.333,381.167 26.333 C 381.258 26.333,381.333 26.188,381.333 26.010 C 381.333 25.832,381.400 25.645,381.481 25.595 C 381.562 25.545,381.688 25.222,381.760 24.877 L 381.892 24.250 382.059 24.875 C 382.150 25.219,382.287 25.500,382.363 25.500 M319.833 24.823 C 319.833 25.001,319.902 25.189,319.985 25.241 C 320.069 25.293,320.188 25.635,320.250 26.001 C 320.312 26.367,320.431 26.667,320.515 26.667 C 320.598 26.667,320.667 26.812,320.667 26.990 C 320.667 27.168,320.742 27.360,320.833 27.417 C 320.925 27.473,321.000 27.665,321.000 27.843 C 321.000 28.021,321.075 28.167,321.167 28.167 C 321.258 28.167,321.333 28.317,321.333 28.500 C 321.333 28.683,321.408 28.833,321.500 28.833 C 321.592 28.833,321.667 28.979,321.667 29.157 C 321.667 29.335,321.742 29.527,321.833 29.583 C 321.925 29.640,322.000 29.832,322.000 30.010 C 322.000 30.188,322.075 30.333,322.167 30.333 C 322.258 30.333,322.333 30.479,322.333 30.657 C 322.333 30.835,322.405 31.025,322.493 31.079 C 322.580 31.133,322.610 31.287,322.558 31.422 C 322.507 31.557,322.547 31.667,322.649 31.667 C 322.750 31.667,322.833 31.812,322.833 31.990 C 322.833 32.168,322.908 32.360,323.000 32.417 C 323.092 32.473,323.167 32.665,323.167 32.843 C 323.167 33.021,323.242 33.167,323.333 33.167 C 323.425 33.167,323.500 33.317,323.500 33.500 C 323.500 33.683,323.575 33.833,323.667 33.833 C 323.758 33.833,323.833 33.979,323.833 34.157 C 323.833 34.335,323.908 34.527,324.000 34.583 C 324.092 34.640,324.167 34.832,324.167 35.010 C 324.167 35.188,324.235 35.333,324.319 35.333 C 324.402 35.333,324.521 35.633,324.583 35.999 C 324.645 36.365,324.764 36.707,324.848 36.759 C 325.400 37.100,324.545 37.167,319.583 37.167 C 314.880 37.167,314.167 37.134,314.167 36.917 C 314.167 36.779,314.242 36.667,314.333 36.667 C 314.425 36.667,314.500 36.553,314.500 36.414 C 314.500 36.276,314.569 36.032,314.653 35.873 C 315.139 34.957,315.854 33.270,315.941 32.837 C 315.996 32.560,316.107 32.333,316.188 32.333 C 316.268 32.333,316.333 32.183,316.333 32.000 C 316.333 31.817,316.408 31.667,316.500 31.667 C 316.592 31.667,316.667 31.521,316.667 31.343 C 316.667 31.165,316.742 30.973,316.833 30.917 C 316.925 30.860,317.000 30.668,317.000 30.490 C 317.000 30.312,317.075 30.167,317.167 30.167 C 317.258 30.167,317.333 30.068,317.333 29.948 C 317.333 29.828,317.485 29.415,317.671 29.030 C 317.857 28.646,318.054 28.107,318.109 27.832 C 318.163 27.558,318.274 27.333,318.354 27.333 C 318.434 27.333,318.500 27.188,318.500 27.010 C 318.500 26.832,318.575 26.640,318.667 26.583 C 318.758 26.527,318.833 26.335,318.833 26.157 C 318.833 25.979,318.908 25.833,319.000 25.833 C 319.092 25.833,319.167 25.683,319.167 25.500 C 319.167 25.317,319.242 25.167,319.333 25.167 C 319.425 25.167,319.500 25.017,319.500 24.833 C 319.500 24.650,319.575 24.500,319.667 24.500 C 319.758 24.500,319.833 24.646,319.833 24.823 M27.524 34.190 C 27.406 34.379,27.347 34.569,27.392 34.614 C 27.436 34.659,27.560 34.532,27.667 34.333 C 27.773 34.134,27.833 33.944,27.799 33.910 C 27.765 33.876,27.641 34.002,27.524 34.190 M26.865 35.327 C 26.456 35.880,26.366 36.271,26.768 35.750 C 27.074 35.352,27.368 34.833,27.287 34.833 C 27.255 34.833,27.065 35.055,26.865 35.327 M25.030 38.250 C 24.926 38.479,24.868 38.667,24.901 38.667 C 24.934 38.667,25.085 38.479,25.235 38.250 C 25.385 38.021,25.443 37.833,25.364 37.833 C 25.285 37.833,25.135 38.021,25.030 38.250 M24.354 39.419 C 23.948 40.107,23.923 40.266,24.195 40.434 C 24.325 40.515,24.355 40.464,24.286 40.283 C 24.228 40.133,24.258 39.963,24.351 39.906 C 24.545 39.786,24.877 38.988,24.775 38.886 C 24.738 38.849,24.549 39.089,24.354 39.419 M23.366 41.082 C 23.165 41.313,23.000 41.577,23.000 41.668 C 23.000 41.759,22.925 41.833,22.833 41.833 C 22.742 41.833,22.667 42.058,22.667 42.333 C 22.667 42.608,22.742 42.833,22.833 42.833 C 22.925 42.833,23.000 42.911,23.000 43.007 C 23.000 43.102,23.150 43.342,23.333 43.538 C 23.517 43.735,23.667 43.995,23.667 44.115 C 23.667 44.235,23.742 44.333,23.833 44.333 C 23.925 44.333,24.000 44.483,24.000 44.667 C 24.000 44.850,24.070 45.000,24.155 45.000 C 24.241 45.000,24.359 45.151,24.417 45.336 C 24.476 45.520,24.595 45.627,24.683 45.573 C 24.770 45.519,24.822 45.537,24.798 45.613 C 24.730 45.825,25.189 46.833,25.354 46.833 C 25.434 46.833,25.500 46.934,25.500 47.058 C 25.500 47.181,25.650 47.417,25.833 47.583 C 26.017 47.749,26.167 47.986,26.167 48.109 C 26.167 48.232,26.242 48.333,26.333 48.333 C 26.425 48.333,26.500 48.474,26.500 48.646 C 26.500 48.818,26.613 49.053,26.750 49.167 C 26.887 49.281,27.000 49.477,27.000 49.604 C 27.000 49.730,27.075 49.833,27.167 49.833 C 27.258 49.833,27.333 49.932,27.333 50.052 C 27.333 50.172,27.483 50.431,27.667 50.628 C 27.850 50.825,28.000 51.102,28.000 51.243 C 28.000 51.384,28.063 51.500,28.140 51.500 C 28.217 51.500,28.493 51.894,28.752 52.375 C 29.012 52.856,29.267 53.288,29.320 53.333 C 29.374 53.379,29.523 53.622,29.652 53.872 C 29.781 54.123,30.025 54.476,30.193 54.657 C 30.362 54.838,30.500 55.074,30.500 55.182 C 30.500 55.289,30.657 55.514,30.849 55.680 C 31.040 55.846,31.148 56.061,31.089 56.158 C 31.029 56.254,31.060 56.333,31.157 56.333 C 31.254 56.333,31.333 56.432,31.333 56.552 C 31.333 56.672,31.483 56.931,31.667 57.128 C 31.850 57.325,32.000 57.602,32.000 57.743 C 32.000 57.884,32.075 58.000,32.167 58.000 C 32.258 58.000,32.333 58.096,32.333 58.213 C 32.333 58.330,32.483 58.535,32.667 58.667 C 32.850 58.799,33.000 59.035,33.000 59.192 C 33.000 59.348,33.094 59.575,33.208 59.696 C 33.323 59.818,33.529 60.142,33.666 60.417 C 33.802 60.692,34.046 61.038,34.207 61.186 C 34.368 61.334,34.500 61.578,34.500 61.728 C 34.500 61.878,34.575 62.000,34.667 62.000 C 34.758 62.000,34.833 62.112,34.833 62.250 C 34.833 62.387,34.901 62.500,34.984 62.500 C 35.066 62.500,35.212 62.725,35.308 63.000 C 35.540 63.663,35.532 63.669,36.180 62.375 C 36.490 61.756,36.782 61.212,36.830 61.167 C 36.931 61.070,37.124 60.730,37.950 59.198 C 38.859 57.513,38.910 57.423,39.008 57.333 C 39.691 56.712,40.179 54.579,39.675 54.419 C 39.497 54.363,39.304 54.170,39.247 53.991 C 39.191 53.813,39.035 53.667,38.901 53.667 C 38.767 53.667,38.320 53.329,37.908 52.917 C 37.495 52.504,37.080 52.167,36.985 52.167 C 36.890 52.167,36.446 51.792,36.000 51.333 C 35.554 50.875,35.143 50.500,35.087 50.500 C 34.963 50.500,34.656 50.249,33.913 49.542 C 33.600 49.244,33.302 49.000,33.250 49.000 C 33.198 49.000,32.900 48.756,32.587 48.458 C 31.720 47.633,31.536 47.500,31.257 47.500 C 31.116 47.500,31.000 47.431,31.000 47.347 C 31.000 47.047,29.739 45.888,29.290 45.775 C 29.039 45.712,28.833 45.595,28.833 45.514 C 28.833 45.290,27.892 44.333,27.671 44.333 C 27.564 44.333,27.372 44.240,27.244 44.125 C 27.116 44.010,26.915 43.833,26.797 43.731 C 26.680 43.628,26.473 43.385,26.338 43.189 C 26.203 42.993,25.997 42.833,25.880 42.833 C 25.638 42.833,23.832 41.122,23.836 40.897 C 23.837 40.816,23.918 40.862,24.015 41.000 C 24.159 41.203,24.180 41.205,24.127 41.010 C 24.020 40.612,23.752 40.638,23.366 41.082 " stroke="none" fill="#0456a5" fill-rule="evenodd"></path><path id="path1" d="M16.369 0.308 C 16.202 0.414,16.165 1.312,16.202 4.376 L 16.250 8.309 15.750 8.443 C 15.404 8.536,15.877 8.593,17.292 8.627 L 19.333 8.677 19.333 10.922 L 19.333 13.167 17.375 13.177 C 16.033 13.184,15.535 13.235,15.792 13.339 C 16.136 13.477,16.167 13.597,16.167 14.795 C 16.167 15.552,16.247 16.180,16.357 16.291 C 16.500 16.434,16.459 16.458,16.191 16.388 C 15.988 16.335,15.833 16.372,15.833 16.474 C 15.833 16.586,15.250 16.675,14.292 16.709 L 12.750 16.764 14.554 16.799 L 16.359 16.833 16.304 19.152 C 16.274 20.427,16.305 21.383,16.372 21.277 C 16.462 21.135,16.496 21.139,16.497 21.292 C 16.500 21.538,27.848 21.578,28.417 21.333 C 28.600 21.255,28.657 21.185,28.544 21.178 C 28.204 21.159,28.160 0.366,28.500 0.274 C 28.637 0.236,26.012 0.198,22.667 0.189 C 19.321 0.179,16.487 0.233,16.369 0.308 M48.629 0.695 C 48.476 1.000,48.190 1.494,47.993 1.792 C 47.795 2.090,47.668 2.333,47.710 2.333 C 47.864 2.333,49.018 0.470,48.964 0.308 C 48.933 0.216,48.783 0.390,48.629 0.695 M45.312 6.113 C 44.086 8.108,43.046 9.822,43.000 9.921 C 42.954 10.021,42.473 10.810,41.931 11.676 C 40.738 13.581,39.344 15.852,38.428 17.383 C 36.875 19.980,35.824 21.500,35.582 21.500 C 35.430 21.500,35.284 21.704,35.225 22.000 C 35.170 22.275,35.059 22.500,34.979 22.500 C 34.899 22.500,34.833 22.613,34.833 22.750 C 34.833 22.887,34.771 23.000,34.695 23.000 C 34.619 23.000,34.453 23.206,34.327 23.458 C 34.201 23.710,34.008 24.029,33.899 24.167 C 33.221 25.018,32.398 27.019,32.836 26.748 C 32.914 26.700,33.024 26.737,33.082 26.831 C 33.139 26.924,33.299 27.000,33.437 27.000 C 33.575 27.000,34.054 27.375,34.500 27.833 C 34.946 28.292,35.390 28.667,35.485 28.667 C 35.580 28.667,35.995 29.004,36.408 29.417 C 36.820 29.829,37.201 30.167,37.253 30.167 C 37.306 30.167,37.532 30.335,37.756 30.542 C 38.782 31.486,38.994 31.667,39.082 31.667 C 39.133 31.667,39.513 32.004,39.925 32.417 C 40.338 32.829,40.823 33.167,41.004 33.167 C 41.185 33.167,41.333 33.236,41.333 33.320 C 41.333 33.550,42.611 34.833,42.840 34.833 C 42.950 34.833,43.363 35.171,43.759 35.583 C 44.154 35.996,44.562 36.333,44.667 36.333 C 44.771 36.333,45.180 36.671,45.575 37.083 C 45.970 37.496,46.383 37.833,46.493 37.833 C 46.722 37.833,48.000 39.117,48.000 39.347 C 48.000 39.431,48.132 39.500,48.293 39.500 C 48.455 39.500,48.685 39.658,48.806 39.851 C 48.926 40.044,48.944 40.152,48.846 40.091 C 48.747 40.030,48.667 40.068,48.667 40.175 C 48.667 40.283,48.783 40.324,48.930 40.268 C 49.075 40.212,49.223 40.167,49.258 40.167 C 49.294 40.167,49.275 40.041,49.216 39.888 C 49.135 39.676,49.176 39.635,49.388 39.716 C 49.573 39.787,49.667 39.738,49.667 39.570 C 49.667 39.431,50.060 38.665,50.541 37.867 C 51.727 35.902,51.968 35.486,52.206 35.000 C 52.318 34.771,52.449 34.546,52.497 34.500 C 53.037 33.981,53.121 33.161,52.667 32.833 C 52.483 32.701,52.333 32.473,52.333 32.326 C 52.333 32.178,52.146 31.882,51.917 31.667 C 51.688 31.451,51.500 31.192,51.500 31.091 C 51.500 30.990,51.350 30.799,51.167 30.667 C 50.983 30.535,50.833 30.349,50.833 30.255 C 50.833 30.161,50.654 29.875,50.435 29.620 C 50.216 29.366,49.860 28.898,49.643 28.580 C 49.427 28.262,49.194 28.002,49.125 28.001 C 49.056 28.001,49.000 27.921,49.000 27.824 C 49.000 27.728,48.775 27.409,48.501 27.116 C 48.226 26.823,48.001 26.524,48.001 26.451 C 48.000 26.379,47.924 26.229,47.830 26.118 C 47.175 25.341,46.998 25.090,46.910 24.811 C 46.854 24.637,46.740 24.538,46.655 24.591 C 46.570 24.643,46.500 24.588,46.500 24.468 C 46.499 24.348,46.275 23.988,46.000 23.667 C 45.725 23.346,45.501 23.030,45.500 22.966 C 45.500 22.901,45.328 22.676,45.117 22.465 C 44.112 21.461,43.865 21.502,50.964 21.478 C 54.513 21.466,57.154 21.401,56.833 21.333 L 56.250 21.211 56.792 21.189 C 57.090 21.177,57.333 21.124,57.333 21.071 C 57.333 20.898,56.860 20.500,56.654 20.500 C 56.542 20.500,56.131 20.162,55.741 19.750 C 55.352 19.337,54.918 19.000,54.778 19.000 C 54.637 19.000,54.475 18.850,54.417 18.667 C 54.358 18.483,54.244 18.333,54.163 18.333 C 54.082 18.333,53.828 18.146,53.598 17.917 C 53.369 17.688,53.082 17.500,52.961 17.500 C 52.840 17.500,52.630 17.340,52.495 17.144 C 52.061 16.513,51.492 16.000,51.226 16.000 C 50.973 16.000,50.329 15.390,49.838 14.685 C 49.703 14.492,49.494 14.333,49.373 14.333 C 49.252 14.333,49.040 14.240,48.902 14.125 C 48.269 13.600,47.833 13.138,47.833 12.992 C 47.833 12.905,47.718 12.833,47.577 12.833 C 47.437 12.833,47.136 12.665,46.909 12.458 C 46.682 12.252,46.313 11.915,46.089 11.708 C 45.865 11.502,45.635 11.333,45.578 11.333 C 45.521 11.333,45.185 11.033,44.833 10.666 C 44.480 10.299,44.040 9.942,43.854 9.874 C 43.517 9.749,43.787 8.705,44.203 8.528 C 44.275 8.497,44.333 8.328,44.333 8.153 C 44.333 7.977,44.394 7.833,44.467 7.833 C 44.587 7.833,45.258 6.711,45.738 5.710 C 45.836 5.504,45.973 5.335,46.042 5.335 C 46.110 5.334,46.167 5.221,46.167 5.083 C 46.167 4.946,46.242 4.833,46.333 4.833 C 46.425 4.833,46.500 4.760,46.500 4.670 C 46.500 4.580,46.769 4.086,47.097 3.573 C 47.426 3.059,47.660 2.604,47.617 2.562 C 47.575 2.519,46.537 4.117,45.312 6.113 M132.549 16.624 C 133.171 16.656,134.146 16.656,134.715 16.623 C 135.284 16.591,134.775 16.564,133.583 16.565 C 132.392 16.565,131.926 16.592,132.549 16.624 M99.733 19.500 C 99.733 20.829,99.759 21.373,99.790 20.708 C 99.822 20.044,99.822 18.956,99.790 18.292 C 99.759 17.627,99.733 18.171,99.733 19.500 M216.911 26.500 C 216.911 31.679,216.932 33.798,216.958 31.208 C 216.984 28.619,216.984 24.381,216.958 21.792 C 216.932 19.202,216.911 21.321,216.911 26.500 M235.580 32.750 C 235.580 41.367,235.600 44.867,235.625 40.529 C 235.650 36.191,235.650 29.141,235.625 24.862 C 235.600 20.584,235.580 24.133,235.580 32.750 M8.833 19.500 C 8.833 19.602,9.611 19.667,10.833 19.667 C 12.056 19.667,12.833 19.602,12.833 19.500 C 12.833 19.398,12.056 19.333,10.833 19.333 C 9.611 19.333,8.833 19.398,8.833 19.500 M83.960 20.755 L 84.039 21.167 74.529 21.167 C 67.448 21.167,64.989 21.216,64.899 21.362 C 64.817 21.495,64.871 21.521,65.070 21.445 C 65.230 21.384,69.592 21.333,74.764 21.333 L 84.167 21.333 84.167 20.927 C 84.167 20.703,84.103 20.480,84.024 20.432 C 83.946 20.383,83.917 20.529,83.960 20.755 M64.863 40.208 L 64.833 45.333 57.458 45.362 C 53.402 45.378,50.571 45.440,51.167 45.500 C 51.762 45.560,52.006 45.622,51.708 45.638 C 50.908 45.680,51.024 45.937,52.512 47.417 C 52.604 47.508,53.081 47.985,53.572 48.476 C 54.063 48.967,54.540 49.443,54.632 49.535 C 54.723 49.627,55.211 50.114,55.715 50.618 C 56.219 51.123,56.707 51.610,56.798 51.702 C 56.890 51.793,57.377 52.281,57.882 52.785 C 58.386 53.289,58.862 53.766,58.941 53.844 C 59.019 53.923,59.496 54.398,60.000 54.900 C 60.504 55.402,61.000 55.911,61.103 56.032 C 61.205 56.152,61.449 56.360,61.644 56.495 C 61.840 56.630,62.000 56.838,62.000 56.957 C 62.000 57.218,67.911 63.167,68.171 63.167 C 68.271 63.167,68.307 63.242,68.250 63.333 C 68.182 63.444,70.915 63.500,76.323 63.500 L 84.500 63.500 84.500 59.670 L 84.500 55.841 83.566 54.938 C 81.943 53.370,80.833 52.210,80.833 52.082 C 80.833 51.968,80.327 51.404,79.355 50.433 C 78.955 50.033,78.477 49.556,78.294 49.373 C 78.111 49.189,77.623 48.702,77.211 48.289 C 75.922 47.000,75.764 46.843,75.207 46.289 C 74.572 45.657,73.799 44.885,73.043 44.126 C 72.746 43.827,72.258 43.340,71.960 43.043 C 71.661 42.746,71.174 42.258,70.876 41.960 C 70.579 41.661,70.092 41.174,69.793 40.876 C 69.494 40.579,69.007 40.092,68.711 39.793 C 68.414 39.494,68.011 39.090,67.816 38.895 C 67.621 38.699,67.143 38.212,66.755 37.811 C 66.367 37.411,65.889 36.973,65.692 36.838 C 65.495 36.703,65.328 36.478,65.322 36.338 C 65.314 36.164,65.266 36.189,65.172 36.417 C 65.067 36.671,65.018 36.553,64.964 35.917 C 64.925 35.458,64.880 37.390,64.863 40.208 M45.884 45.523 C 45.682 45.767,43.833 49.000,43.833 49.108 C 43.833 49.144,43.658 49.453,43.445 49.795 C 43.231 50.137,42.829 50.829,42.552 51.333 C 42.275 51.837,41.848 52.606,41.602 53.042 C 41.357 53.477,41.233 53.833,41.328 53.833 C 41.423 53.833,41.500 53.766,41.500 53.684 C 41.500 53.601,41.787 53.058,42.138 52.475 C 42.489 51.893,42.995 51.004,43.262 50.500 C 43.529 49.996,43.786 49.546,43.832 49.500 C 43.927 49.406,44.078 49.147,45.143 47.250 C 45.554 46.517,45.962 45.869,46.049 45.811 C 46.136 45.753,46.177 45.613,46.139 45.501 C 46.088 45.346,46.026 45.352,45.884 45.523 M40.436 55.077 C 40.288 55.303,40.167 55.522,40.167 55.564 C 40.167 55.606,39.784 56.303,39.316 57.112 C 37.765 59.795,37.488 60.333,37.662 60.333 C 37.756 60.333,37.833 60.263,37.833 60.177 C 37.833 60.091,38.422 58.985,39.141 57.719 C 40.718 54.942,40.865 54.667,40.775 54.667 C 40.737 54.667,40.584 54.852,40.436 55.077 M36.952 61.265 C 36.500 62.013,36.366 62.374,36.651 62.075 C 36.878 61.837,37.525 60.636,37.461 60.572 C 37.430 60.541,37.201 60.853,36.952 61.265 " stroke="none" fill="#048ac8" fill-rule="evenodd"></path><path id="path2" d="M28.500 0.271 C 28.160 0.367,28.204 21.159,28.544 21.178 C 28.657 21.185,28.600 21.255,28.417 21.333 C 28.035 21.497,31.727 21.555,32.667 21.400 L 33.250 21.303 33.167 10.777 L 33.083 0.250 30.917 0.225 C 29.725 0.212,28.637 0.232,28.500 0.271 M38.897 16.375 C 38.323 17.348,38.286 17.431,38.578 17.083 C 38.916 16.680,39.208 16.167,39.099 16.167 C 39.055 16.167,38.964 16.260,38.897 16.375 M37.603 18.411 C 37.454 18.637,37.333 18.867,37.333 18.922 C 37.333 18.978,37.121 19.337,36.862 19.720 C 36.261 20.607,36.130 20.833,36.217 20.833 C 36.312 20.833,37.384 19.207,37.729 18.541 C 38.059 17.902,37.985 17.827,37.603 18.411 M68.458 21.458 C 70.315 21.485,73.352 21.485,75.208 21.458 C 77.065 21.431,75.546 21.409,71.833 21.409 C 68.121 21.409,66.602 21.431,68.458 21.458 M65.180 26.385 C 65.173 26.551,65.092 26.640,65.000 26.583 C 64.891 26.516,64.834 27.845,64.835 30.448 C 64.836 34.715,64.967 36.961,65.182 36.410 C 65.270 36.185,65.314 36.163,65.322 36.338 C 65.328 36.478,65.495 36.703,65.692 36.838 C 65.889 36.973,66.367 37.411,66.755 37.811 C 67.143 38.212,67.621 38.699,67.816 38.895 C 68.011 39.090,68.414 39.494,68.711 39.793 C 69.007 40.092,69.494 40.579,69.793 40.876 C 70.092 41.174,70.579 41.661,70.876 41.960 C 71.174 42.258,71.661 42.746,71.959 43.043 C 72.650 43.731,73.436 44.517,74.124 45.207 C 74.421 45.506,74.908 45.993,75.207 46.289 C 75.762 46.841,75.906 46.984,77.211 48.289 C 77.623 48.702,78.121 49.199,78.316 49.395 C 78.512 49.590,78.989 50.067,79.377 50.455 C 80.328 51.404,80.833 51.969,80.833 52.082 C 80.833 52.210,81.939 53.365,83.579 54.951 L 84.526 55.867 84.472 50.887 L 84.417 45.906 76.292 37.787 C 71.823 33.322,68.167 29.592,68.167 29.500 C 68.167 29.407,67.540 28.708,66.774 27.945 C 66.007 27.182,65.338 26.451,65.287 26.321 C 65.219 26.148,65.189 26.165,65.180 26.385 M32.125 27.049 C 31.873 27.340,31.667 27.673,31.667 27.789 C 31.667 27.905,31.600 28.000,31.518 28.000 C 31.436 28.000,31.321 28.194,31.261 28.431 C 31.202 28.668,31.006 29.019,30.827 29.212 C 30.647 29.405,30.500 29.661,30.500 29.781 C 30.500 29.902,30.434 30.000,30.352 30.000 C 30.191 30.000,29.575 31.174,29.632 31.375 C 29.651 31.444,29.600 31.500,29.518 31.500 C 29.436 31.500,29.322 31.691,29.263 31.923 C 29.205 32.156,29.086 32.303,29.000 32.250 C 28.914 32.197,28.797 32.362,28.740 32.618 C 28.684 32.874,28.620 33.156,28.598 33.245 C 28.549 33.448,29.254 34.167,29.502 34.167 C 29.603 34.167,30.019 34.504,30.425 34.917 C 30.832 35.329,31.245 35.667,31.343 35.667 C 31.441 35.667,31.887 36.042,32.333 36.500 C 32.780 36.958,33.223 37.333,33.318 37.333 C 33.413 37.333,33.829 37.671,34.241 38.083 C 34.654 38.496,35.034 38.833,35.087 38.833 C 35.139 38.833,35.365 39.002,35.589 39.208 C 36.615 40.153,36.828 40.333,36.915 40.333 C 36.967 40.333,37.346 40.671,37.759 41.083 C 38.171 41.496,38.657 41.833,38.838 41.833 C 39.019 41.833,39.167 41.902,39.167 41.986 C 39.167 42.217,40.444 43.500,40.674 43.500 C 40.783 43.500,41.197 43.837,41.592 44.250 C 41.987 44.663,42.397 45.000,42.503 45.000 C 42.610 45.000,43.024 45.337,43.425 45.750 C 43.826 46.163,44.270 46.500,44.410 46.500 C 44.675 46.500,44.792 47.416,44.542 47.528 C 44.369 47.604,43.806 48.695,43.894 48.783 C 43.933 48.822,44.366 48.126,44.857 47.237 C 45.348 46.348,45.919 45.510,46.125 45.374 C 46.331 45.239,46.500 45.031,46.500 44.911 C 46.500 44.792,46.557 44.669,46.628 44.639 C 46.783 44.571,47.844 42.791,48.175 42.042 C 48.307 41.744,48.471 41.500,48.541 41.500 C 48.610 41.500,48.667 41.346,48.667 41.157 C 48.667 40.968,48.724 40.849,48.794 40.893 C 48.865 40.936,49.009 40.787,49.116 40.562 C 49.290 40.193,49.277 40.162,48.988 40.254 C 48.800 40.313,48.667 40.278,48.667 40.168 C 48.667 40.065,48.747 40.030,48.846 40.091 C 48.944 40.152,48.926 40.044,48.806 39.851 C 48.685 39.658,48.455 39.500,48.293 39.500 C 48.132 39.500,48.000 39.431,48.000 39.347 C 48.000 39.117,46.722 37.833,46.493 37.833 C 46.383 37.833,45.970 37.496,45.575 37.083 C 45.180 36.671,44.771 36.333,44.667 36.333 C 44.562 36.333,44.154 35.996,43.759 35.583 C 43.363 35.171,42.950 34.833,42.840 34.833 C 42.611 34.833,41.333 33.550,41.333 33.320 C 41.333 33.236,41.185 33.167,41.004 33.167 C 40.823 33.167,40.338 32.829,39.925 32.417 C 39.513 32.004,39.133 31.667,39.080 31.667 C 39.028 31.667,38.802 31.498,38.578 31.292 C 37.552 30.347,37.339 30.167,37.252 30.167 C 37.200 30.167,36.820 29.829,36.408 29.417 C 35.995 29.004,35.580 28.667,35.485 28.667 C 35.390 28.667,34.946 28.292,34.500 27.833 C 34.054 27.375,33.580 27.000,33.448 27.000 C 33.316 27.000,33.114 26.887,33.000 26.750 C 32.721 26.414,32.656 26.436,32.125 27.049 " stroke="none" fill="#0477ba" fill-rule="evenodd"></path><path id="path3" d="M6.611 0.278 C 6.473 0.416,6.468 4.446,6.605 4.958 C 6.704 5.327,6.751 5.333,9.269 5.333 L 11.833 5.333 11.833 2.750 L 11.833 0.167 9.278 0.167 C 7.872 0.167,6.672 0.217,6.611 0.278 M14.667 4.240 C 14.667 8.660,14.650 8.588,15.631 8.423 L 16.250 8.318 16.202 4.381 C 16.165 1.313,16.202 0.414,16.369 0.308 C 16.494 0.228,16.185 0.171,15.625 0.169 L 14.667 0.167 14.667 4.240 M49.000 0.342 C 49.000 0.439,48.700 0.960,48.333 1.500 C 47.967 2.040,47.667 2.527,47.667 2.582 C 47.667 2.637,47.404 3.093,47.083 3.595 C 46.762 4.096,46.500 4.580,46.500 4.670 C 46.500 4.760,46.425 4.833,46.333 4.833 C 46.242 4.833,46.167 4.946,46.167 5.083 C 46.167 5.221,46.110 5.334,46.042 5.335 C 45.973 5.335,45.836 5.504,45.738 5.710 C 45.258 6.711,44.587 7.833,44.467 7.833 C 44.394 7.833,44.333 7.977,44.333 8.153 C 44.333 8.328,44.275 8.497,44.203 8.528 C 43.787 8.705,43.517 9.749,43.854 9.874 C 44.040 9.942,44.480 10.299,44.833 10.666 C 45.185 11.033,45.521 11.333,45.578 11.333 C 45.635 11.333,45.865 11.502,46.089 11.708 C 46.313 11.915,46.682 12.252,46.909 12.458 C 47.136 12.665,47.437 12.833,47.577 12.833 C 47.718 12.833,47.833 12.905,47.833 12.992 C 47.833 13.138,48.269 13.600,48.902 14.125 C 49.040 14.240,49.252 14.333,49.373 14.333 C 49.494 14.333,49.703 14.492,49.838 14.685 C 50.329 15.390,50.973 16.000,51.226 16.000 C 51.492 16.000,52.061 16.513,52.495 17.144 C 52.630 17.340,52.840 17.500,52.961 17.500 C 53.082 17.500,53.369 17.688,53.598 17.917 C 53.828 18.146,54.082 18.333,54.163 18.333 C 54.244 18.333,54.358 18.483,54.417 18.667 C 54.475 18.850,54.637 19.000,54.778 19.000 C 54.918 19.000,55.352 19.338,55.741 19.750 C 56.131 20.163,56.542 20.500,56.654 20.500 C 56.860 20.500,57.333 20.898,57.333 21.071 C 57.333 21.124,57.090 21.175,56.792 21.186 C 56.264 21.205,56.267 21.208,56.917 21.343 C 57.892 21.545,64.791 21.536,64.917 21.333 C 64.983 21.225,68.363 21.167,74.510 21.167 C 85.390 21.167,84.725 21.285,83.167 19.634 C 82.708 19.148,82.333 18.690,82.333 18.616 C 82.333 18.541,82.258 18.527,82.167 18.583 C 82.075 18.640,82.000 18.569,82.000 18.427 C 82.000 18.284,81.894 18.167,81.764 18.167 C 81.634 18.167,81.428 17.942,81.307 17.667 C 81.185 17.392,81.033 17.167,80.968 17.167 C 80.904 17.167,80.529 16.818,80.134 16.391 C 79.740 15.965,78.906 15.089,78.281 14.444 C 77.657 13.799,77.072 13.134,76.981 12.965 C 76.891 12.796,76.745 12.701,76.658 12.755 C 76.571 12.809,76.500 12.765,76.500 12.657 C 76.500 12.549,76.191 12.170,75.813 11.814 C 75.435 11.458,75.178 11.167,75.243 11.167 C 75.308 11.167,75.036 10.868,74.639 10.502 C 73.352 9.318,72.167 8.037,72.167 7.830 C 72.167 7.753,72.017 7.642,71.833 7.583 C 71.650 7.525,71.500 7.404,71.500 7.315 C 71.500 7.225,71.313 6.964,71.083 6.735 C 70.854 6.506,70.667 6.242,70.667 6.149 C 70.667 6.056,70.592 6.027,70.500 6.083 C 70.408 6.140,70.333 6.057,70.333 5.899 C 70.333 5.741,70.289 5.656,70.234 5.710 C 70.179 5.765,69.861 5.506,69.526 5.134 C 68.333 3.812,67.499 3.000,67.334 3.000 C 67.242 3.000,67.167 2.890,67.167 2.756 C 67.167 2.622,66.644 1.984,66.006 1.339 L 64.845 0.167 56.922 0.167 C 51.477 0.167,49.000 0.222,49.000 0.342 M5.033 9.867 C 4.896 10.004,4.833 10.817,4.833 12.444 C 4.833 15.325,4.674 15.167,7.583 15.167 C 10.502 15.167,10.333 15.340,10.333 12.345 C 10.333 10.241,10.294 9.854,10.070 9.768 C 9.558 9.571,5.244 9.656,5.033 9.867 M0.203 13.200 L 0.250 15.083 1.500 15.134 C 2.188 15.163,2.994 15.140,3.292 15.085 L 3.833 14.985 3.833 13.178 L 3.833 11.372 1.994 11.345 L 0.156 11.317 0.203 13.200 M11.533 13.033 C 11.184 13.383,11.266 16.378,11.632 16.606 C 12.000 16.836,15.833 16.700,15.833 16.457 C 15.833 16.368,15.994 16.337,16.191 16.388 C 16.459 16.458,16.500 16.434,16.357 16.291 C 16.247 16.180,16.167 15.553,16.167 14.796 C 16.167 13.191,16.135 13.172,13.447 13.155 C 12.251 13.147,11.703 13.092,11.917 13.000 C 12.153 12.898,12.175 12.853,11.992 12.845 C 11.850 12.839,11.643 12.923,11.533 13.033 M172.821 16.068 C 172.777 16.112,172.383 16.166,171.944 16.189 C 171.506 16.211,171.110 16.291,171.064 16.365 C 171.018 16.439,170.806 16.500,170.593 16.500 C 170.379 16.500,169.995 16.609,169.739 16.741 C 169.483 16.874,169.201 16.938,169.111 16.882 C 169.021 16.827,169.001 16.868,169.067 16.974 C 169.145 17.101,169.040 17.167,168.760 17.167 C 168.525 17.167,168.333 17.228,168.333 17.302 C 168.333 17.377,168.071 17.541,167.750 17.667 C 167.429 17.793,167.167 17.969,167.167 18.059 C 167.167 18.149,167.120 18.175,167.062 18.118 C 167.005 18.060,166.635 18.235,166.240 18.507 C 165.846 18.778,165.448 19.000,165.356 19.000 C 165.264 19.000,165.142 19.150,165.083 19.333 C 165.025 19.517,164.904 19.667,164.814 19.667 C 164.724 19.667,164.314 20.023,163.903 20.458 C 162.762 21.665,162.500 21.987,162.500 22.178 C 162.500 22.274,162.425 22.307,162.333 22.250 C 162.242 22.193,162.167 22.252,162.167 22.381 C 162.167 22.510,162.017 22.751,161.833 22.917 C 161.650 23.083,161.500 23.319,161.500 23.442 C 161.500 23.566,161.421 23.667,161.323 23.667 C 161.226 23.667,161.190 23.736,161.242 23.820 C 161.294 23.904,161.219 24.091,161.075 24.235 C 160.931 24.379,160.770 24.758,160.719 25.078 C 160.667 25.398,160.575 25.629,160.514 25.592 C 160.454 25.555,160.388 25.722,160.368 25.963 C 160.348 26.204,160.257 26.477,160.166 26.568 C 160.075 26.659,160.000 26.868,160.000 27.033 C 160.000 27.198,159.940 27.333,159.867 27.333 C 159.794 27.333,159.716 27.608,159.694 27.944 C 159.671 28.280,159.602 28.636,159.541 28.735 C 159.153 29.363,158.852 34.510,159.145 35.499 C 159.240 35.821,159.336 36.398,159.358 36.782 C 159.380 37.166,159.450 37.448,159.515 37.408 C 159.579 37.368,159.673 37.616,159.723 37.959 C 159.896 39.142,160.038 39.667,160.186 39.667 C 160.267 39.667,160.333 39.780,160.333 39.919 C 160.333 40.058,160.402 40.301,160.486 40.461 C 160.791 41.039,161.167 41.971,161.167 42.150 C 161.167 42.251,161.242 42.333,161.333 42.333 C 161.425 42.333,161.500 42.446,161.500 42.583 C 161.500 42.721,161.575 42.833,161.667 42.833 C 161.758 42.833,161.833 42.929,161.833 43.047 C 161.833 43.164,161.983 43.368,162.167 43.500 C 162.350 43.632,162.500 43.878,162.500 44.047 C 162.500 44.215,162.575 44.307,162.667 44.250 C 162.758 44.193,162.834 44.245,162.834 44.365 C 162.834 44.485,163.292 44.996,163.851 45.500 C 164.410 46.004,165.051 46.585,165.275 46.792 C 165.499 46.998,165.759 47.167,165.853 47.167 C 165.947 47.167,166.136 47.279,166.274 47.417 C 166.411 47.554,166.668 47.667,166.845 47.667 C 167.022 47.667,167.167 47.742,167.167 47.833 C 167.167 47.925,167.279 48.000,167.417 48.000 C 167.554 48.000,167.667 48.075,167.667 48.167 C 167.667 48.258,167.854 48.333,168.083 48.333 C 168.313 48.333,168.500 48.408,168.500 48.500 C 168.500 48.592,168.688 48.667,168.917 48.667 C 169.146 48.667,169.333 48.733,169.333 48.814 C 169.333 48.896,169.540 49.004,169.792 49.054 C 170.044 49.105,170.587 49.232,171.000 49.337 C 173.056 49.859,179.117 49.938,179.606 49.449 C 179.670 49.386,180.010 49.333,180.361 49.333 C 180.712 49.333,181.000 49.258,181.000 49.167 C 181.000 49.075,181.151 49.000,181.336 49.000 C 181.520 49.000,181.820 48.925,182.002 48.833 C 182.184 48.742,182.482 48.592,182.664 48.500 C 182.846 48.408,183.109 48.333,183.248 48.333 C 183.386 48.333,183.500 48.258,183.500 48.167 C 183.500 48.075,183.612 48.000,183.750 48.000 C 183.887 48.000,184.000 47.925,184.000 47.833 C 184.000 47.742,184.116 47.667,184.258 47.667 C 184.668 47.667,185.549 47.157,185.958 46.684 C 186.164 46.445,186.333 46.313,186.333 46.390 C 186.333 46.467,186.858 45.992,187.500 45.333 C 188.142 44.675,188.667 44.047,188.667 43.938 C 188.667 43.829,188.817 43.632,189.000 43.500 C 189.183 43.368,189.333 43.164,189.333 43.047 C 189.333 42.929,189.396 42.833,189.472 42.833 C 189.623 42.833,189.762 42.578,190.407 41.120 C 190.642 40.590,190.833 40.047,190.833 39.912 C 190.833 39.777,190.908 39.667,191.000 39.667 C 191.092 39.667,191.167 39.442,191.167 39.167 C 191.167 38.892,191.233 38.667,191.314 38.667 C 191.461 38.667,191.524 38.433,191.852 36.667 C 192.146 35.081,192.233 30.365,191.973 30.045 C 191.783 29.810,191.786 29.790,192.000 29.909 C 192.203 30.023,192.211 30.007,192.042 29.824 C 191.927 29.701,191.833 29.367,191.833 29.083 C 191.833 28.799,191.740 28.466,191.625 28.342 C 191.456 28.161,191.461 28.143,191.651 28.251 C 191.825 28.350,191.846 28.325,191.735 28.151 C 191.510 27.797,191.172 26.788,191.169 26.458 C 191.168 26.298,191.092 26.167,191.000 26.167 C 190.908 26.167,190.833 26.049,190.833 25.906 C 190.833 25.547,189.790 23.318,189.400 22.844 C 189.226 22.632,188.933 22.295,188.750 22.096 C 188.567 21.898,188.398 21.644,188.375 21.533 C 188.320 21.273,186.684 19.667,186.473 19.667 C 186.385 19.667,186.360 19.592,186.417 19.500 C 186.473 19.408,186.454 19.333,186.375 19.333 C 186.295 19.333,186.084 19.198,185.906 19.033 C 185.729 18.867,185.171 18.511,184.667 18.241 C 184.162 17.971,183.725 17.694,183.694 17.625 C 183.664 17.556,183.500 17.500,183.329 17.500 C 183.159 17.500,182.973 17.425,182.917 17.333 C 182.860 17.242,182.668 17.167,182.490 17.167 C 182.312 17.167,182.167 17.092,182.167 17.000 C 182.167 16.908,181.957 16.833,181.700 16.833 C 181.443 16.833,181.162 16.764,181.075 16.680 C 180.597 16.216,173.220 15.669,172.821 16.068 M129.739 16.917 C 129.695 17.100,129.679 24.375,129.704 33.083 L 129.750 48.917 132.958 48.962 L 136.167 49.007 136.167 43.754 L 136.167 38.500 138.882 38.500 L 141.597 38.500 142.423 39.430 C 142.878 39.941,143.599 40.729,144.025 41.180 C 144.451 41.631,144.774 42.000,144.741 42.000 C 144.709 42.000,144.874 42.206,145.109 42.458 C 145.343 42.710,145.771 43.211,146.059 43.571 C 146.347 43.931,146.752 44.390,146.958 44.590 C 147.165 44.791,147.333 45.044,147.333 45.154 C 147.333 45.263,147.408 45.307,147.500 45.250 C 147.592 45.193,147.667 45.268,147.667 45.417 C 147.667 45.565,147.742 45.640,147.833 45.583 C 147.925 45.527,148.000 45.548,148.000 45.631 C 148.000 45.797,148.784 46.750,149.628 47.611 C 149.928 47.917,150.130 48.167,150.079 48.167 C 150.027 48.167,150.174 48.356,150.405 48.586 L 150.824 49.006 154.620 48.961 C 158.828 48.912,159.027 48.845,157.990 47.833 C 157.755 47.604,157.373 47.136,157.142 46.793 C 156.910 46.449,156.671 46.218,156.610 46.279 C 156.550 46.339,156.500 46.294,156.500 46.178 C 156.500 46.062,156.144 45.612,155.708 45.179 C 155.273 44.746,154.617 44.034,154.250 43.598 C 153.883 43.162,153.333 42.530,153.027 42.194 C 152.721 41.858,152.158 41.215,151.777 40.764 C 151.395 40.314,150.813 39.676,150.483 39.348 C 150.153 39.019,149.675 38.469,149.421 38.125 L 148.960 37.500 149.470 37.500 C 149.751 37.500,150.027 37.425,150.083 37.333 C 150.140 37.242,150.345 37.167,150.538 37.167 C 150.731 37.167,151.290 36.941,151.778 36.665 C 152.267 36.389,152.667 36.210,152.667 36.266 C 152.667 36.323,152.884 36.136,153.150 35.851 C 153.416 35.566,153.698 35.333,153.777 35.333 C 153.856 35.333,154.070 35.133,154.252 34.889 C 154.434 34.645,154.658 34.361,154.750 34.259 C 155.000 33.981,155.480 33.158,155.777 32.500 C 155.922 32.179,156.111 31.779,156.198 31.610 C 156.285 31.441,156.398 30.766,156.450 30.110 C 156.503 29.454,156.614 28.829,156.698 28.722 C 156.870 28.503,156.845 26.167,156.671 26.167 C 156.610 26.167,156.543 25.798,156.522 25.347 C 156.502 24.896,156.335 24.127,156.152 23.639 C 155.968 23.150,155.776 22.619,155.723 22.458 C 155.671 22.298,155.562 22.167,155.481 22.167 C 155.400 22.167,155.333 22.068,155.333 21.948 C 155.333 21.828,155.183 21.569,155.000 21.372 C 154.817 21.175,154.667 20.936,154.667 20.840 C 154.667 20.745,154.610 20.666,154.542 20.666 C 154.473 20.666,154.267 20.441,154.083 20.167 C 153.900 19.892,153.652 19.667,153.532 19.667 C 153.412 19.667,153.360 19.592,153.417 19.500 C 153.473 19.408,153.417 19.333,153.291 19.333 C 153.166 19.333,152.901 19.182,152.703 18.998 C 152.265 18.590,150.870 17.833,150.556 17.833 C 150.431 17.833,150.180 17.758,149.998 17.667 C 149.816 17.575,149.518 17.425,149.336 17.333 C 149.154 17.242,148.741 17.167,148.419 17.167 C 148.097 17.167,147.833 17.098,147.833 17.013 C 147.833 16.884,145.738 16.809,140.708 16.759 C 140.227 16.754,139.833 16.712,139.833 16.667 C 139.833 16.352,129.815 16.600,129.739 16.917 M196.500 32.750 L 196.500 49.000 199.750 49.000 L 203.000 49.000 203.000 38.672 C 203.000 29.432,203.027 28.354,203.257 28.442 C 203.399 28.497,203.481 28.575,203.439 28.616 C 203.398 28.657,203.882 29.337,204.515 30.126 C 205.149 30.915,205.667 31.627,205.667 31.707 C 205.667 31.787,205.742 31.807,205.833 31.750 C 205.925 31.693,206.000 31.769,206.000 31.918 C 206.000 32.066,206.225 32.378,206.500 32.609 C 206.775 32.840,207.000 33.101,207.000 33.189 C 207.000 33.356,207.176 33.592,207.792 34.250 C 207.998 34.471,208.167 34.713,208.167 34.789 C 208.167 34.865,208.317 35.035,208.500 35.167 C 208.683 35.299,208.833 35.499,208.833 35.612 C 208.833 35.725,208.965 35.893,209.125 35.987 C 209.285 36.080,209.355 36.159,209.280 36.162 C 209.204 36.164,209.242 36.266,209.363 36.387 C 209.484 36.508,209.808 36.893,210.083 37.243 C 210.358 37.592,210.826 38.149,211.122 38.480 C 211.418 38.812,211.705 39.215,211.758 39.375 C 211.812 39.535,211.921 39.667,212.000 39.667 C 212.079 39.667,212.191 39.813,212.247 39.992 C 212.304 40.171,212.609 40.576,212.925 40.892 C 213.241 41.208,213.500 41.515,213.500 41.574 C 213.500 41.695,213.558 41.768,214.541 42.898 C 214.931 43.347,215.419 43.909,215.625 44.148 C 215.831 44.388,216.000 44.664,216.000 44.763 C 216.000 44.861,216.188 45.118,216.417 45.333 C 216.646 45.549,216.833 45.829,216.833 45.956 C 216.833 46.082,216.897 46.147,216.975 46.099 C 217.053 46.051,217.215 46.196,217.336 46.422 C 217.457 46.648,217.619 46.833,217.695 46.833 C 217.771 46.833,217.833 46.950,217.833 47.093 C 217.833 47.236,217.908 47.307,218.000 47.250 C 218.092 47.193,218.167 47.254,218.167 47.385 C 218.167 47.516,218.438 47.933,218.770 48.312 L 219.373 49.000 221.320 49.000 C 222.612 49.000,223.334 48.933,223.467 48.800 C 223.727 48.539,223.760 17.000,223.500 17.000 C 223.408 17.000,223.352 16.906,223.375 16.792 C 223.407 16.631,222.694 16.583,220.250 16.583 L 217.083 16.583 216.998 26.250 C 216.951 31.567,216.895 35.793,216.873 35.643 C 216.851 35.492,216.724 35.327,216.590 35.276 C 216.457 35.225,216.166 34.898,215.943 34.550 C 215.721 34.201,215.375 33.729,215.175 33.500 C 214.974 33.271,214.646 32.896,214.447 32.667 C 214.247 32.438,213.939 32.025,213.762 31.750 C 213.586 31.475,213.229 31.051,212.971 30.808 C 212.712 30.565,212.499 30.303,212.499 30.225 C 212.498 30.147,212.123 29.684,211.665 29.195 C 211.208 28.707,210.833 28.242,210.833 28.161 C 210.833 28.081,210.657 27.839,210.442 27.624 C 210.227 27.409,209.908 27.012,209.734 26.742 C 209.346 26.141,208.848 25.533,208.458 25.186 C 208.298 25.043,208.167 24.826,208.167 24.703 C 208.167 24.581,208.100 24.522,208.018 24.572 C 207.937 24.622,207.752 24.421,207.608 24.124 C 207.464 23.826,207.084 23.302,206.765 22.958 C 206.445 22.615,206.225 22.333,206.276 22.333 C 206.327 22.333,206.136 22.116,205.851 21.850 C 205.566 21.584,205.333 21.288,205.333 21.193 C 205.333 21.098,204.978 20.659,204.543 20.218 C 204.109 19.777,203.778 19.392,203.808 19.361 C 203.839 19.331,203.591 19.003,203.258 18.631 C 202.925 18.260,202.637 17.873,202.618 17.770 C 202.599 17.667,202.325 17.340,202.009 17.042 L 201.435 16.500 198.967 16.500 L 196.500 16.500 196.500 32.750 M229.075 16.680 C 229.023 16.764,229.027 16.908,229.083 17.000 C 229.140 17.092,229.106 17.167,229.008 17.167 C 228.847 17.167,228.840 48.168,229.002 48.792 C 229.074 49.073,235.082 49.092,235.382 48.812 C 235.588 48.620,235.619 17.733,235.414 16.869 C 235.318 16.464,229.319 16.285,229.075 16.680 M239.954 16.613 C 239.505 16.734,240.575 19.053,241.197 19.306 C 241.272 19.336,241.333 19.456,241.333 19.571 C 241.333 19.687,241.521 19.999,241.750 20.266 C 241.979 20.532,242.166 20.805,242.166 20.873 C 242.167 20.993,242.352 21.235,243.135 22.139 C 243.347 22.383,243.663 22.857,243.838 23.191 C 244.013 23.525,244.252 23.903,244.370 24.031 C 244.487 24.159,244.658 24.379,244.750 24.520 C 245.859 26.220,246.586 27.260,246.697 27.306 C 246.772 27.336,246.833 27.467,246.833 27.597 C 246.833 27.727,246.908 27.833,247.000 27.833 C 247.092 27.833,247.167 27.946,247.167 28.083 C 247.167 28.221,247.243 28.333,247.336 28.333 C 247.429 28.333,247.631 28.596,247.784 28.917 C 247.937 29.238,248.114 29.500,248.177 29.500 C 248.241 29.500,248.386 29.725,248.500 30.000 C 248.614 30.275,248.773 30.500,248.854 30.500 C 248.934 30.500,249.000 30.596,249.000 30.713 C 249.000 30.830,249.150 31.035,249.333 31.167 C 249.517 31.299,249.667 31.503,249.667 31.620 C 249.667 31.737,249.742 31.833,249.833 31.833 C 249.925 31.833,250.000 31.946,250.000 32.083 C 250.000 32.221,250.070 32.333,250.156 32.333 C 250.242 32.333,250.301 32.483,250.288 32.667 C 250.274 32.850,250.203 33.000,250.131 33.000 C 250.059 33.000,250.000 33.112,250.000 33.250 C 250.000 33.387,249.925 33.500,249.833 33.500 C 249.742 33.500,249.667 33.594,249.666 33.708 C 249.666 33.823,249.498 34.117,249.291 34.361 C 249.085 34.605,248.785 34.962,248.625 35.155 C 248.465 35.347,248.333 35.578,248.333 35.669 C 248.333 35.759,248.263 35.833,248.178 35.833 C 248.092 35.833,247.969 36.002,247.904 36.208 C 247.839 36.415,247.646 36.705,247.476 36.853 C 247.306 37.001,247.167 37.198,247.167 37.291 C 247.167 37.383,247.052 37.554,246.913 37.670 C 246.773 37.786,246.692 37.914,246.733 37.955 C 246.774 37.996,246.588 38.259,246.321 38.540 C 246.053 38.820,245.833 39.151,245.833 39.276 C 245.833 39.400,245.646 39.665,245.417 39.864 C 245.188 40.064,245.000 40.326,245.000 40.447 C 245.000 40.568,244.941 40.667,244.869 40.667 C 244.796 40.667,244.489 41.076,244.186 41.577 C 243.882 42.077,243.510 42.633,243.359 42.813 C 242.600 43.711,242.500 43.849,242.500 44.002 C 242.500 44.093,242.425 44.167,242.333 44.167 C 242.242 44.167,242.167 44.272,242.167 44.400 C 242.167 44.618,240.958 46.343,240.294 47.073 C 240.132 47.251,240.000 47.495,240.000 47.615 C 240.000 47.735,239.944 47.834,239.875 47.835 C 239.695 47.837,239.326 48.687,239.431 48.857 C 239.480 48.936,241.111 49.000,243.056 49.000 C 246.746 49.000,247.167 48.914,247.167 48.165 C 247.167 48.074,247.235 48.000,247.318 48.000 C 247.402 48.000,247.637 47.656,247.840 47.236 C 248.044 46.816,248.388 46.294,248.605 46.077 C 248.822 45.860,249.000 45.638,249.000 45.584 C 249.000 45.448,249.714 44.443,249.917 44.294 C 250.008 44.227,250.028 44.171,249.960 44.169 C 249.845 44.167,250.144 43.750,250.625 43.243 C 250.740 43.123,250.833 42.943,250.833 42.845 C 250.833 42.747,250.908 42.667,251.000 42.667 C 251.092 42.667,251.167 42.554,251.167 42.417 C 251.167 42.279,251.223 42.166,251.292 42.165 C 251.360 42.164,251.554 41.876,251.722 41.525 C 251.890 41.174,252.246 40.631,252.513 40.318 C 252.781 40.006,252.999 39.662,253.000 39.556 C 253.000 39.449,253.056 39.336,253.125 39.306 C 253.269 39.242,254.165 38.087,254.426 37.629 C 254.584 37.352,254.656 37.403,255.123 38.118 C 255.410 38.557,255.761 39.067,255.904 39.250 C 256.047 39.433,256.440 39.996,256.779 40.500 C 257.118 41.004,257.489 41.511,257.603 41.626 C 257.718 41.741,257.859 41.985,257.917 42.168 C 257.975 42.350,258.092 42.500,258.178 42.500 C 258.263 42.500,258.333 42.612,258.333 42.750 C 258.333 42.887,258.390 43.000,258.459 43.000 C 258.529 43.000,258.687 43.230,258.812 43.511 C 258.936 43.793,259.217 44.202,259.436 44.421 C 259.654 44.639,259.833 44.897,259.833 44.992 C 259.833 45.088,259.890 45.168,259.958 45.169 C 260.027 45.170,260.225 45.465,260.397 45.826 C 260.570 46.186,260.818 46.523,260.950 46.573 C 261.081 46.623,261.141 46.740,261.084 46.832 C 261.027 46.924,261.060 47.000,261.157 47.000 C 261.254 47.000,261.333 47.074,261.333 47.165 C 261.333 47.320,261.650 47.756,262.125 48.257 C 262.240 48.377,262.333 48.589,262.333 48.726 C 262.333 48.941,262.859 48.979,266.000 48.994 C 270.269 49.014,270.508 48.783,268.480 46.607 C 268.308 46.422,268.167 46.189,268.167 46.089 C 268.167 45.989,268.017 45.799,267.833 45.667 C 267.650 45.535,267.500 45.330,267.500 45.213 C 267.500 45.096,267.434 45.000,267.354 45.000 C 267.273 45.000,267.115 44.777,267.002 44.504 C 266.889 44.231,266.673 43.863,266.523 43.685 C 265.768 42.791,265.667 42.651,265.667 42.508 C 265.667 42.422,265.511 42.243,265.321 42.110 C 265.131 41.977,264.960 41.767,264.942 41.642 C 264.896 41.332,263.734 39.651,263.074 38.940 C 262.977 38.835,262.752 38.489,262.574 38.170 C 262.396 37.851,262.175 37.503,262.083 37.397 C 261.494 36.715,261.333 36.467,261.333 36.238 C 261.333 36.096,261.258 36.027,261.167 36.083 C 261.075 36.140,261.000 36.069,261.000 35.927 C 261.000 35.784,260.925 35.667,260.833 35.667 C 260.742 35.667,260.667 35.554,260.667 35.417 C 260.667 35.279,260.587 35.167,260.490 35.167 C 260.393 35.167,260.360 35.092,260.417 35.000 C 260.473 34.908,260.453 34.833,260.371 34.833 C 260.290 34.833,260.117 34.634,259.986 34.390 C 259.856 34.147,259.544 33.726,259.292 33.456 C 258.840 32.972,258.674 32.333,259.000 32.333 C 259.092 32.333,259.167 32.232,259.167 32.108 C 259.167 31.984,259.386 31.653,259.654 31.373 C 259.922 31.093,260.109 30.831,260.069 30.792 C 260.030 30.752,260.148 30.584,260.332 30.418 C 260.516 30.251,260.667 30.033,260.667 29.933 C 260.667 29.832,260.861 29.525,261.098 29.250 C 261.335 28.975,261.651 28.544,261.800 28.292 C 261.950 28.040,262.131 27.833,262.203 27.833 C 262.275 27.833,262.333 27.759,262.333 27.667 C 262.333 27.476,263.515 25.778,263.706 25.694 C 263.776 25.664,263.833 25.560,263.833 25.464 C 263.833 25.368,263.965 25.168,264.125 25.020 C 264.285 24.871,264.441 24.637,264.472 24.500 C 264.502 24.363,264.633 24.190,264.763 24.117 C 264.894 24.043,265.000 23.875,265.000 23.742 C 265.000 23.609,265.075 23.500,265.167 23.500 C 265.258 23.500,265.333 23.404,265.333 23.287 C 265.333 23.170,265.483 22.965,265.667 22.833 C 265.850 22.701,266.000 22.506,266.000 22.400 C 266.000 22.294,266.114 22.113,266.254 21.997 C 266.394 21.881,266.470 21.748,266.424 21.702 C 266.377 21.655,266.500 21.478,266.695 21.309 C 266.891 21.139,266.983 20.999,266.901 20.997 C 266.818 20.996,266.825 20.940,266.917 20.872 C 267.210 20.657,268.167 19.359,268.167 19.176 C 268.167 19.079,268.242 19.000,268.333 19.000 C 268.425 19.000,268.500 18.922,268.500 18.826 C 268.500 18.730,268.690 18.449,268.922 18.201 C 269.238 17.864,269.332 17.603,269.297 17.167 L 269.250 16.583 265.792 16.557 C 262.454 16.531,262.333 16.542,262.333 16.858 C 262.333 17.039,262.258 17.140,262.167 17.083 C 262.075 17.027,262.000 17.065,262.000 17.169 C 262.000 17.272,261.887 17.470,261.748 17.609 C 261.610 17.747,261.547 17.941,261.608 18.039 C 261.668 18.138,261.643 18.172,261.551 18.115 C 261.459 18.058,261.279 18.215,261.150 18.464 C 260.921 18.908,260.760 19.142,260.406 19.547 C 260.309 19.659,260.124 19.988,259.996 20.280 C 259.868 20.571,259.704 20.773,259.631 20.728 C 259.559 20.684,259.500 20.764,259.500 20.907 C 259.500 21.050,259.425 21.167,259.333 21.167 C 259.242 21.167,259.167 21.253,259.167 21.359 C 259.167 21.465,258.979 21.798,258.750 22.098 C 258.521 22.399,258.333 22.697,258.333 22.761 C 258.333 22.825,258.202 22.999,258.042 23.147 C 257.881 23.295,257.726 23.529,257.696 23.667 C 257.666 23.804,257.572 23.942,257.488 23.972 C 257.403 24.003,257.333 24.138,257.333 24.274 C 257.333 24.409,257.258 24.473,257.167 24.417 C 257.075 24.360,257.000 24.431,257.000 24.573 C 257.000 24.716,256.933 24.833,256.851 24.833 C 256.770 24.833,256.660 25.004,256.608 25.212 C 256.556 25.420,256.360 25.754,256.173 25.955 C 255.986 26.155,255.833 26.398,255.833 26.493 C 255.833 26.589,255.758 26.667,255.667 26.667 C 255.575 26.667,255.500 26.779,255.500 26.917 C 255.500 27.054,255.425 27.167,255.333 27.167 C 255.242 27.167,255.167 27.241,255.167 27.331 C 255.167 27.700,254.608 28.159,254.385 27.974 C 254.265 27.874,254.167 27.724,254.167 27.641 C 254.167 27.558,253.872 27.117,253.511 26.660 C 253.150 26.204,252.808 25.681,252.750 25.499 C 252.692 25.316,252.574 25.167,252.489 25.167 C 252.403 25.167,252.333 25.054,252.333 24.917 C 252.333 24.779,252.254 24.667,252.157 24.667 C 252.060 24.667,252.027 24.592,252.083 24.500 C 252.140 24.408,252.118 24.333,252.034 24.333 C 251.949 24.333,251.600 23.878,251.256 23.321 C 250.913 22.765,250.527 22.269,250.399 22.220 C 250.271 22.171,250.167 21.993,250.167 21.825 C 250.167 21.657,250.094 21.475,250.004 21.419 C 249.915 21.364,249.724 21.070,249.579 20.765 C 249.435 20.461,249.170 20.055,248.992 19.863 C 248.813 19.671,248.667 19.436,248.667 19.340 C 248.667 19.245,248.592 19.167,248.500 19.167 C 248.408 19.167,248.333 19.054,248.333 18.917 C 248.333 18.779,248.258 18.667,248.167 18.667 C 248.075 18.667,248.000 18.584,248.000 18.482 C 248.000 18.381,247.777 18.016,247.504 17.672 C 247.232 17.328,247.063 16.987,247.129 16.913 C 247.196 16.840,247.156 16.834,247.042 16.900 C 246.915 16.973,246.833 16.923,246.833 16.773 C 246.833 16.529,240.786 16.388,239.954 16.613 M100.032 16.810 C 99.847 16.928,99.751 19.447,99.829 22.167 C 99.832 22.274,101.614 22.333,104.833 22.333 L 109.833 22.333 109.854 35.417 C 109.866 42.612,109.884 48.594,109.896 48.708 C 109.912 48.865,110.707 48.928,113.125 48.962 L 116.333 49.007 116.333 35.670 L 116.333 22.333 121.500 22.333 L 126.667 22.333 126.667 19.700 C 126.667 17.874,126.605 17.005,126.467 16.867 C 126.231 16.631,100.402 16.576,100.032 16.810 M16.197 18.917 C 16.183 20.108,16.227 21.170,16.294 21.276 C 16.362 21.383,16.396 20.670,16.371 19.693 C 16.298 16.887,16.225 16.560,16.197 18.917 M8.680 19.458 C 8.673 19.573,8.573 19.648,8.458 19.625 C 8.299 19.593,8.250 20.189,8.250 22.167 L 8.250 24.750 10.737 24.796 C 12.615 24.831,13.258 24.790,13.360 24.630 C 13.560 24.314,13.533 19.874,13.331 19.748 C 13.237 19.691,13.204 19.574,13.257 19.488 C 13.310 19.403,13.236 19.333,13.093 19.333 C 12.950 19.333,12.833 19.408,12.833 19.500 C 12.833 19.760,8.882 19.720,8.777 19.458 C 8.710 19.292,8.690 19.292,8.680 19.458 M178.167 21.948 C 178.304 22.007,178.529 22.067,178.667 22.083 C 179.982 22.235,183.500 24.792,183.500 25.597 C 183.500 25.727,183.561 25.833,183.636 25.833 C 183.833 25.833,184.514 27.097,184.386 27.225 C 184.326 27.285,184.365 27.333,184.472 27.333 C 184.579 27.333,184.667 27.483,184.667 27.667 C 184.667 27.850,184.742 28.000,184.833 28.000 C 184.925 28.000,185.000 28.225,185.000 28.500 C 185.000 28.775,185.075 29.000,185.167 29.000 C 185.258 29.000,185.333 29.300,185.333 29.667 C 185.333 30.033,185.408 30.333,185.500 30.333 C 185.604 30.333,185.667 31.274,185.667 32.823 C 185.667 34.304,185.599 35.355,185.500 35.417 C 185.408 35.473,185.333 35.778,185.333 36.093 C 185.333 36.409,185.274 36.667,185.202 36.667 C 185.130 36.667,185.053 36.910,185.030 37.208 C 185.008 37.506,184.917 37.775,184.828 37.806 C 184.739 37.836,184.667 38.047,184.667 38.274 C 184.667 38.501,184.601 38.646,184.520 38.596 C 184.440 38.546,184.330 38.727,184.276 38.997 C 184.221 39.268,184.025 39.642,183.839 39.828 C 183.652 40.014,183.500 40.231,183.500 40.311 C 183.500 40.508,181.853 42.167,181.657 42.167 C 181.571 42.167,181.500 42.242,181.500 42.333 C 181.500 42.425,181.387 42.500,181.250 42.500 C 181.112 42.500,181.000 42.575,181.000 42.667 C 181.000 42.758,180.846 42.833,180.657 42.833 C 180.468 42.833,180.360 42.908,180.417 43.000 C 180.473 43.092,180.365 43.167,180.177 43.167 C 179.988 43.167,179.833 43.233,179.833 43.315 C 179.833 43.397,179.552 43.507,179.208 43.561 C 178.865 43.614,178.358 43.707,178.083 43.767 C 177.443 43.906,173.855 43.935,173.417 43.805 C 173.233 43.751,172.746 43.650,172.333 43.583 C 171.921 43.515,171.384 43.318,171.141 43.146 C 170.898 42.974,170.616 42.833,170.516 42.833 C 170.416 42.833,170.333 42.758,170.333 42.667 C 170.333 42.575,170.221 42.500,170.083 42.500 C 169.946 42.500,169.833 42.425,169.833 42.333 C 169.833 42.242,169.754 42.167,169.657 42.167 C 169.560 42.167,169.145 41.810,168.736 41.375 C 167.531 40.095,167.333 39.855,167.333 39.673 C 167.333 39.578,167.258 39.500,167.167 39.500 C 167.075 39.500,166.998 39.369,166.995 39.208 C 166.992 39.048,166.879 38.771,166.745 38.593 C 166.610 38.415,166.500 38.096,166.500 37.885 C 166.500 37.673,166.425 37.500,166.333 37.500 C 166.242 37.500,166.167 37.317,166.167 37.093 C 166.167 36.869,166.092 36.640,166.000 36.583 C 165.908 36.527,165.833 36.110,165.833 35.657 C 165.833 35.204,165.758 34.833,165.667 34.833 C 165.565 34.833,165.500 34.059,165.500 32.843 C 165.500 31.696,165.571 30.809,165.667 30.750 C 165.758 30.693,165.833 30.314,165.833 29.907 C 165.833 29.500,165.908 29.167,166.000 29.167 C 166.092 29.167,166.167 29.016,166.167 28.831 C 166.167 28.646,166.234 28.365,166.315 28.206 C 166.572 27.706,166.887 26.927,166.935 26.670 C 166.961 26.534,167.061 26.396,167.158 26.364 C 167.254 26.332,167.333 26.199,167.333 26.069 C 167.333 25.940,167.393 25.833,167.466 25.833 C 167.540 25.833,167.782 25.545,168.005 25.192 C 168.227 24.840,168.661 24.371,168.967 24.151 C 169.274 23.930,169.703 23.581,169.922 23.375 C 170.140 23.169,170.397 23.000,170.492 23.000 C 170.588 23.000,170.667 22.943,170.667 22.874 C 170.667 22.146,176.839 21.384,178.167 21.948 M146.972 22.858 C 147.003 22.936,147.172 23.000,147.347 23.000 C 147.523 23.000,147.667 23.075,147.667 23.167 C 147.667 23.258,147.745 23.333,147.840 23.333 C 148.272 23.333,149.784 24.893,149.908 25.467 C 149.962 25.714,150.051 26.104,150.107 26.333 C 150.381 27.467,150.058 29.711,149.524 30.380 C 147.784 32.561,147.394 32.667,141.113 32.667 L 136.167 32.667 136.167 27.669 L 136.167 22.672 140.875 22.628 C 145.793 22.581,146.880 22.622,146.972 22.858 M46.167 45.589 C 46.167 45.708,46.105 45.831,46.029 45.861 C 45.954 45.892,45.555 46.517,45.143 47.250 C 44.071 49.159,43.927 49.407,43.832 49.500 C 43.786 49.546,43.529 49.996,43.262 50.500 C 42.995 51.004,42.489 51.893,42.138 52.475 C 41.787 53.058,41.500 53.601,41.500 53.684 C 41.500 53.766,41.425 53.833,41.333 53.833 C 41.242 53.833,41.167 53.902,41.167 53.985 C 41.167 54.069,40.417 55.463,39.500 57.083 C 38.583 58.704,37.833 60.092,37.833 60.168 C 37.833 60.244,37.777 60.331,37.708 60.361 C 37.640 60.392,37.426 60.717,37.234 61.083 C 37.042 61.450,36.650 62.144,36.363 62.625 L 35.842 63.500 51.994 63.500 C 62.583 63.500,68.182 63.443,68.250 63.333 C 68.307 63.242,68.271 63.167,68.171 63.167 C 67.911 63.167,62.000 57.218,62.000 56.957 C 62.000 56.838,61.840 56.630,61.644 56.495 C 61.449 56.360,61.205 56.152,61.103 56.032 C 61.000 55.911,60.504 55.402,60.000 54.900 C 59.496 54.398,59.008 53.912,58.917 53.820 C 58.825 53.729,58.359 53.263,57.882 52.785 C 57.404 52.307,56.938 51.842,56.846 51.750 C 56.755 51.658,56.256 51.160,55.739 50.643 C 55.222 50.125,54.723 49.627,54.632 49.535 C 54.540 49.443,54.052 48.956,53.548 48.452 C 53.044 47.948,52.556 47.460,52.464 47.369 C 51.023 45.936,50.910 45.678,51.708 45.642 C 52.843 45.591,49.666 45.354,47.958 45.363 C 46.604 45.370,46.167 45.425,46.167 45.589 " stroke="none" fill="#04c3f2" fill-rule="evenodd"></path><path id="path4" d="M33.167 10.743 L 33.250 21.319 32.833 21.388 C 32.604 21.426,33.165 21.448,34.079 21.437 L 35.741 21.417 36.527 20.250 C 36.959 19.608,37.317 19.029,37.323 18.962 C 37.329 18.896,37.821 18.088,38.417 17.167 C 39.565 15.392,39.594 15.333,39.333 15.333 C 39.242 15.333,39.167 15.446,39.167 15.583 C 39.167 15.721,39.092 15.833,39.000 15.833 C 38.891 15.833,38.833 13.165,38.833 8.163 L 38.833 0.492 38.406 0.329 C 38.171 0.240,36.877 0.167,35.531 0.167 L 33.083 0.167 33.167 10.743 M14.217 13.124 C 15.208 13.154,16.783 13.154,17.717 13.124 C 18.652 13.095,17.842 13.070,15.917 13.071 C 13.992 13.071,13.227 13.095,14.217 13.124 M40.202 13.958 C 39.704 14.669,39.473 15.167,39.641 15.167 C 39.726 15.167,39.835 15.035,39.885 14.875 C 39.935 14.715,40.139 14.340,40.338 14.042 C 40.776 13.386,40.655 13.311,40.202 13.958 M84.167 21.083 C 84.167 21.294,83.720 21.339,81.292 21.370 L 78.417 21.408 81.083 21.460 C 82.550 21.488,83.919 21.470,84.125 21.419 C 84.490 21.329,84.666 20.833,84.333 20.833 C 84.242 20.833,84.167 20.946,84.167 21.083 M64.833 23.990 C 64.833 25.470,64.901 26.522,65.000 26.583 C 65.092 26.640,65.173 26.551,65.180 26.385 C 65.189 26.165,65.219 26.148,65.287 26.321 C 65.338 26.451,66.007 27.182,66.774 27.945 C 67.540 28.708,68.167 29.407,68.167 29.500 C 68.167 29.592,71.798 33.297,76.237 37.733 C 82.332 43.823,84.327 45.914,84.386 46.274 C 84.430 46.536,84.454 44.122,84.441 40.909 L 84.417 35.068 81.875 32.541 C 80.477 31.151,79.333 29.929,79.333 29.824 C 79.333 29.719,79.090 29.416,78.792 29.151 C 78.494 28.885,78.175 28.589,78.083 28.494 C 77.992 28.398,77.504 27.908,77.000 27.404 C 76.496 26.899,76.030 26.434,75.965 26.368 C 75.900 26.303,75.423 25.827,74.906 25.309 C 74.388 24.792,73.890 24.293,73.798 24.202 C 73.707 24.110,73.225 23.615,72.729 23.101 C 72.232 22.587,71.758 22.167,71.674 22.167 C 71.591 22.167,71.475 22.017,71.417 21.833 C 71.316 21.515,71.164 21.500,68.072 21.500 L 64.833 21.500 64.833 23.990 M29.158 31.773 C 29.066 32.015,29.023 32.246,29.063 32.286 C 29.103 32.326,29.191 32.184,29.257 31.971 C 29.324 31.758,29.462 31.528,29.564 31.461 C 29.694 31.375,29.686 31.338,29.538 31.336 C 29.421 31.334,29.250 31.531,29.158 31.773 M28.333 33.236 C 28.333 33.366,28.277 33.497,28.208 33.528 C 28.047 33.599,26.500 36.158,26.500 36.353 C 26.500 36.434,26.425 36.500,26.333 36.500 C 26.242 36.500,26.167 36.612,26.167 36.750 C 26.167 36.887,26.092 37.000,26.000 37.000 C 25.908 37.000,25.833 37.112,25.833 37.250 C 25.833 37.387,25.758 37.500,25.667 37.500 C 25.575 37.500,25.500 37.582,25.500 37.683 C 25.500 37.783,25.355 38.069,25.178 38.318 C 25.001 38.567,24.806 38.969,24.745 39.212 C 24.684 39.454,24.533 39.737,24.410 39.839 C 24.287 39.941,24.228 40.132,24.278 40.264 C 24.341 40.427,24.290 40.473,24.119 40.407 C 23.980 40.354,23.822 40.383,23.768 40.471 C 23.713 40.559,23.781 40.675,23.918 40.727 C 24.055 40.780,24.166 40.919,24.164 41.036 C 24.162 41.186,24.113 41.175,24.000 41.000 C 23.911 40.862,23.837 40.816,23.836 40.897 C 23.832 41.122,25.638 42.833,25.880 42.833 C 25.997 42.833,26.203 42.993,26.338 43.187 C 26.741 43.768,27.400 44.333,27.676 44.333 C 27.893 44.333,28.833 45.293,28.833 45.514 C 28.833 45.595,29.039 45.712,29.290 45.775 C 29.739 45.888,31.000 47.047,31.000 47.347 C 31.000 47.431,31.116 47.500,31.257 47.500 C 31.536 47.500,31.720 47.633,32.587 48.458 C 32.900 48.756,33.198 49.000,33.250 49.000 C 33.302 49.000,33.600 49.244,33.913 49.542 C 34.656 50.249,34.963 50.500,35.087 50.500 C 35.143 50.500,35.554 50.875,36.000 51.333 C 36.446 51.792,36.890 52.167,36.985 52.167 C 37.080 52.167,37.495 52.504,37.908 52.917 C 38.320 53.329,38.767 53.667,38.901 53.667 C 39.035 53.667,39.191 53.813,39.247 53.991 C 39.304 54.170,39.497 54.363,39.675 54.419 C 40.066 54.543,40.102 55.218,39.750 55.833 C 39.400 56.445,39.449 56.670,39.804 56.083 C 40.157 55.500,41.301 53.419,41.567 52.876 C 41.668 52.671,41.806 52.502,41.875 52.501 C 41.944 52.501,42.000 52.350,42.000 52.167 C 42.000 51.983,42.056 51.833,42.125 51.832 C 42.194 51.831,42.398 51.493,42.579 51.082 C 42.760 50.670,42.966 50.333,43.037 50.333 C 43.108 50.333,43.167 50.183,43.167 50.000 C 43.167 49.817,43.223 49.666,43.292 49.665 C 43.360 49.663,43.642 49.178,43.917 48.585 C 44.192 47.993,44.473 47.507,44.542 47.504 C 44.801 47.495,44.671 46.500,44.410 46.500 C 44.270 46.500,43.826 46.163,43.425 45.750 C 43.024 45.337,42.610 45.000,42.503 45.000 C 42.397 45.000,41.987 44.663,41.592 44.250 C 41.197 43.837,40.783 43.500,40.674 43.500 C 40.444 43.500,39.167 42.217,39.167 41.986 C 39.167 41.902,39.019 41.833,38.838 41.833 C 38.657 41.833,38.171 41.496,37.759 41.083 C 37.346 40.671,36.967 40.333,36.915 40.333 C 36.828 40.333,36.615 40.153,35.589 39.208 C 35.365 39.002,35.139 38.833,35.087 38.833 C 35.034 38.833,34.654 38.496,34.241 38.083 C 33.829 37.671,33.413 37.333,33.318 37.333 C 33.223 37.333,32.780 36.958,32.333 36.500 C 31.887 36.042,31.441 35.667,31.343 35.667 C 31.245 35.667,30.832 35.329,30.425 34.917 C 30.019 34.504,29.603 34.167,29.502 34.167 C 29.218 34.167,28.550 33.432,28.627 33.204 C 28.664 33.092,28.613 33.000,28.514 33.000 C 28.415 33.000,28.333 33.106,28.333 33.236 " stroke="none" fill="#046ab4" fill-rule="evenodd">
</path>
</g>

</svg>